<svg width="33" height="33" viewBox="0 0 33 33" fill="none" xmlns="http://www.w3.org/2000/svg">
<path d="M0 0H33V33H0V0Z" fill="#F7DF1E"/>
<path d="M8.67681 27.5772L11.2022 26.0489C11.6894 26.9127 12.1326 27.6436 13.1957 27.6436C14.2147 27.6436 14.8571 27.245 14.8571 25.6945V15.1502H17.9583V25.7383C17.9583 28.9503 16.0755 30.4123 13.3286 30.4123C10.8478 30.4123 9.40773 29.1275 8.67676 27.577" fill="black"/>
<path d="M19.6428 27.2449L22.1679 25.7829C22.8326 26.8685 23.6965 27.6659 25.2249 27.6659C26.5099 27.6659 27.3293 27.0234 27.3293 26.1373C27.3293 25.074 26.4875 24.6974 25.0698 24.0774L24.2947 23.7449C22.0573 22.7925 20.5731 21.5964 20.5731 19.071C20.5731 16.7451 22.3452 14.9729 25.1142 14.9729C27.0857 14.9729 28.5034 15.6597 29.5223 17.454L27.1077 19.0045C26.5761 18.0521 26.0003 17.6755 25.1143 17.6755C24.206 17.6755 23.6301 18.2515 23.6301 19.0045C23.6301 19.9349 24.206 20.3116 25.535 20.8875L26.3102 21.2198C28.9463 22.3496 30.4305 23.5014 30.4305 26.093C30.4305 28.8843 28.2375 30.4126 25.2914 30.4126C22.4117 30.4126 20.5509 29.0393 19.6428 27.2449Z" fill="black"/>
</svg>
