<svg width="16" height="16" viewBox="0 0 16 16" fill="none" xmlns="http://www.w3.org/2000/svg">
<rect width="16" height="16" fill="white"/>
<path d="M8.70074 7.35421H7.20216C7.20216 8.64633 7.19629 9.93044 7.19629 11.2242C7.2139 11.3997 7.2235 11.604 7.2235 11.8105C7.2235 12.2426 7.18029 12.6646 7.0976 13.0722L7.10453 13.0316C6.88473 13.491 6.31763 13.4323 6.06048 13.3517C5.81988 13.2226 5.62942 13.0268 5.51045 12.7889L5.50725 12.7814C5.48378 12.7313 5.4555 12.6886 5.42189 12.6502L5.42243 12.6507L4.20553 13.4008C4.40132 13.8223 4.70381 14.1658 5.07886 14.4065L5.08846 14.4123C5.49551 14.6401 5.98206 14.774 6.49955 14.774C6.75776 14.774 7.0085 14.7404 7.24697 14.678L7.2267 14.6828C7.75379 14.5505 8.18326 14.208 8.4292 13.7524L8.434 13.7423C8.62552 13.2546 8.73595 12.6897 8.73595 12.0991C8.73595 11.8921 8.72208 11.6883 8.69594 11.4882L8.69861 11.5117C8.70661 10.1422 8.69861 8.77223 8.69861 7.39208L8.70074 7.35421ZM14.6897 12.1845C14.5729 11.4546 14.0976 10.8411 12.6875 10.2692C12.1967 10.0393 11.6515 9.87923 11.4893 9.50898C11.4557 9.42469 11.4365 9.32706 11.4365 9.22517C11.4365 9.15901 11.4445 9.09499 11.46 9.03364L11.4589 9.03898C11.5699 8.74556 11.8489 8.54016 12.1754 8.54016C12.2816 8.54016 12.3824 8.5615 12.4736 8.60045L12.4688 8.59831C12.7633 8.69968 12.9959 8.91521 13.117 9.19156L13.1197 9.19849C13.8089 8.74769 13.8089 8.74769 14.2896 8.4484C14.1744 8.25154 14.0447 8.08082 13.898 7.92718L13.8991 7.92824C13.4899 7.49398 12.9111 7.22403 12.2687 7.22403C12.1775 7.22403 12.0874 7.22937 11.9993 7.24004L12.01 7.23897L11.54 7.29819C11.0833 7.40169 10.6933 7.63909 10.4021 7.96612L10.4005 7.96826C10.115 8.32303 9.94218 8.77863 9.94218 9.27478C9.94218 9.95712 10.2692 10.5632 10.7744 10.9451L10.7798 10.9489C11.6899 11.6291 13.0204 11.7785 13.1906 12.4187C13.3507 13.1986 12.6107 13.4488 11.8798 13.3587C11.3693 13.2424 10.951 12.9159 10.7147 12.4773L10.7099 12.4683L9.48978 13.1687C9.63329 13.4547 9.81361 13.699 10.0291 13.9076L10.0297 13.9082C11.1895 15.0787 14.0896 15.0189 14.6102 13.2386C14.6705 13.0444 14.7052 12.8214 14.7052 12.5904C14.7052 12.4304 14.6887 12.2741 14.6567 12.1236L14.6593 12.1386L14.6897 12.1845ZM0 0H16V16H0V0Z" fill="black"/>
</svg>
