<svg width="33" height="33" viewBox="0 0 33 33" fill="none" xmlns="http://www.w3.org/2000/svg">
<path d="M0 16.5V33H16.5H33V16.5V0H16.5H0V16.5Z" fill="#007ACC"/>
<path d="M7.29743 16.6095L7.28696 17.9609H9.43457H11.5822L11.5822 24.0633V30.1656H13.1012H14.6203V24.0633L14.6203 17.9609H16.7679H18.9155V16.6356C18.9155 15.9023 18.8998 15.2895 18.8789 15.2737C18.8631 15.2528 16.2493 15.2423 13.0803 15.2476L7.31315 15.2633L7.29743 16.6095Z" fill="white"/>
<path d="M26.6277 15.2249C27.4658 15.4344 28.1048 15.8063 28.6915 16.4139C28.9953 16.7387 29.4458 17.3306 29.4824 17.472C29.4929 17.5139 28.0577 18.4777 27.1881 19.0173C27.1567 19.0382 27.031 18.902 26.8896 18.6925C26.4653 18.0744 26.0201 17.8073 25.3391 17.7601C24.3386 17.692 23.6943 18.2158 23.6996 19.0906C23.6996 19.3473 23.7362 19.4992 23.841 19.7087C24.061 20.1644 24.4696 20.4368 25.7529 20.992C28.1153 22.0082 29.1262 22.6787 29.7548 23.632C30.4567 24.6954 30.6139 26.3925 30.1372 27.6549C29.6134 29.0273 28.3143 29.9597 26.4862 30.2687C25.9205 30.3682 24.5796 30.3525 23.972 30.2425C22.6467 30.0068 21.3896 29.352 20.6143 28.493C20.3105 28.1577 19.7186 27.283 19.7553 27.2201C19.771 27.1992 19.9072 27.1154 20.0591 27.0263C20.2058 26.9425 20.761 26.623 21.2848 26.3192L22.2329 25.7692L22.432 26.0625C22.7096 26.4868 23.3172 27.0682 23.6839 27.262C24.7367 27.8173 26.1824 27.7387 26.8948 27.0997C27.1986 26.822 27.3243 26.5339 27.3243 26.1097C27.3243 25.7273 27.2772 25.5597 27.0781 25.2716C26.8215 24.9049 26.2977 24.5958 24.8101 23.9516C23.1077 23.2182 22.3743 22.7625 21.7039 22.0397C21.3162 21.6206 20.9496 20.9501 20.7977 20.3897C20.672 19.9235 20.6405 18.7554 20.7401 18.2839C21.091 16.6392 22.3324 15.492 24.1239 15.1516C24.7053 15.0416 26.0567 15.0835 26.6277 15.2249Z" fill="white"/>
</svg>
