<svg width="30" height="34" viewBox="0 0 30 34" fill="none" xmlns="http://www.w3.org/2000/svg">
<path d="M15 0L30 8.48491V25.4604L15 33.9453L0 25.4604V8.48491L15 0Z" fill="white"/>
<path d="M27.3225 24.8717L15.498 31.5679V26.3604L22.8678 22.3019L27.3225 24.8717ZM28.1319 24.1415V10.1491L23.8074 12.6453V21.6453L28.1319 24.1415ZM2.63194 24.8717L14.4565 31.5623V26.3547L7.08666 22.3019L2.63194 24.8717ZM1.82251 24.1415V10.1491L6.14704 12.6453V21.6453L1.82251 24.1415ZM2.32628 9.2434L14.4565 2.38303V7.42076L6.68477 11.6943L6.62251 11.7283L2.32628 9.2434ZM27.6225 9.2434L15.498 2.38303V7.42076L23.264 11.7L23.3263 11.734L27.6225 9.2434Z" fill="#8ED6FB"/>
<path d="M14.4565 25.1717L7.1886 21.1698V13.2509L14.4565 17.4453V25.1717ZM15.498 25.1717L22.766 21.1755V13.2509L15.498 17.4453V25.1717ZM7.67539 12.3339L14.9773 8.32074L22.2735 12.3339L14.9773 16.5453L7.67539 12.3339Z" fill="#1C78C0"/>
</svg>
