<svg width="15" height="16" viewBox="0 0 15 16" fill="none" xmlns="http://www.w3.org/2000/svg">
<path d="M14.0448 12.3326L7.53206 16V13.1428L11.5901 10.9198L14.0448 12.3326ZM14.4913 11.9307V4.25821L12.1071 5.62932V10.5595L14.4913 11.9307ZM0.446512 12.3326L6.95927 16V13.1428L2.9012 10.9198L0.446512 12.3326ZM0 11.9307V4.25821L2.38421 5.62932V10.5595L0 11.9307ZM0.27907 3.76152L6.95927 0V2.76307L2.64863 5.12417L0.27907 3.76152ZM14.2123 3.76152L7.53206 0V2.76307L11.8427 5.12417L14.2123 3.76152ZM6.95927 12.4944L2.95701 10.3008V5.958L6.95927 8.2599V12.4944ZM7.53206 12.4944L11.5343 10.3008V5.958L7.53206 8.2599V12.4944ZM3.22706 5.45624L7.24679 3.25694L11.2665 5.45624L7.24679 7.76716L3.22706 5.45624Z" fill="black"/>
</svg>
