<svg width="16" height="12" viewBox="0 0 16 12" fill="none" xmlns="http://www.w3.org/2000/svg">
<path d="M13.7735 6.89829C13.793 6.89779 13.816 6.89729 13.8395 6.89729C14.2567 6.89729 14.6514 6.99429 15.0015 7.1673L14.986 7.1603C15.3052 7.3158 15.5673 7.54581 15.7569 7.82783L15.7614 7.83483C15.911 8.05283 16 8.32235 16 8.61236C16 8.63336 15.9995 8.65436 15.9985 8.67486V8.67186C15.983 8.96137 15.8514 9.21688 15.6493 9.39589L15.6483 9.39689C15.5378 9.50539 15.4042 9.5904 15.2557 9.6444L15.2481 9.6469C15.1648 9.66357 15.1189 9.65107 15.1106 9.6094C15.1022 9.56773 15.1398 9.5219 15.2231 9.47189C15.4492 9.33489 15.6128 9.11388 15.6723 8.85337L15.6738 8.84687C15.6753 8.82587 15.6763 8.80137 15.6763 8.77637C15.6763 8.62086 15.6393 8.47385 15.5738 8.34385L15.5763 8.34935C15.4677 8.12284 15.3057 7.93683 15.1061 7.80232L15.1011 7.79932C14.8024 7.60732 14.4443 7.48131 14.0591 7.44981L14.0511 7.44931C13.92 7.42981 13.769 7.41881 13.6149 7.41881C13.2142 7.41881 12.8315 7.49431 12.4793 7.63182L12.5004 7.62432C12.5729 7.79382 12.6184 7.99033 12.6249 8.19634V8.19884C12.6169 8.62136 12.3898 8.98887 12.0521 9.19388L12.0466 9.19688C11.8916 9.30689 11.7145 9.40339 11.5259 9.47839L11.5084 9.4844C11.3938 9.5404 11.2593 9.5729 11.1172 9.5729C11.1007 9.5729 11.0847 9.5724 11.0687 9.5714H11.0712C10.7547 9.50506 10.6797 9.23005 10.8461 8.74636C10.9186 8.53586 11.0202 8.35335 11.1487 8.19284L11.1457 8.19634C11.3103 7.98133 11.4909 7.79282 11.6905 7.62582L11.696 7.62132L11.647 7.54831C11.5554 7.39231 11.4714 7.2108 11.4038 7.02129L11.3968 6.99829C11.3468 6.83162 11.3051 6.67344 11.2718 6.52377L11.2468 6.34876L10.9967 6.82328C10.7799 7.2233 10.5715 7.57315 10.3714 7.87283L10.2963 7.99783C10.3804 8.20184 10.4424 8.43835 10.4704 8.68536L10.4714 8.69786C10.4734 8.72136 10.4744 8.74936 10.4744 8.77737C10.4744 9.15638 10.2873 9.49139 10.0002 9.6959L9.99669 9.6984C9.85962 9.78291 9.69604 9.87041 9.52646 9.94841L9.49645 9.96091C9.31987 10.0374 9.11527 10.0874 8.90067 10.0984H8.89617C8.87966 10.0994 8.86015 10.1004 8.84064 10.1004C8.71559 10.1004 8.59703 10.0719 8.49098 10.0214L8.49598 10.0234C8.43245 9.96891 8.39243 9.88891 8.39243 9.79941C8.39243 9.75391 8.40294 9.7104 8.42145 9.6719L8.42045 9.6739C8.62054 9.39339 8.81763 9.14938 9.02723 8.91637L9.02073 8.92387L9.57099 8.22434L9.47144 7.99933C9.3914 7.85233 9.31487 7.67882 9.25334 7.49881L9.24633 7.47481C9.19631 7.30814 9.15462 7.14996 9.12127 7.00029L9.09626 6.82528L8.84615 7.42531C8.64639 7.89166 8.46297 8.29151 8.29589 8.62486C8.04677 9.12488 7.83834 9.50823 7.6706 9.77491L7.62057 9.84991C7.42081 10.1663 7.22906 10.3244 7.0453 10.3244C6.86155 10.3244 6.73699 10.2078 6.67163 9.97441C6.62361 9.80241 6.59559 9.6049 6.59559 9.40089C6.59559 9.38289 6.59559 9.36489 6.59609 9.34689V9.34939L6.64612 8.99937V9.02438C6.51272 9.34072 6.37932 9.63223 6.24593 9.89891C6.15739 10.0719 6.06634 10.2194 5.9643 10.3584L5.9708 10.3489C5.86775 10.4569 5.72268 10.5239 5.56211 10.5239C5.56061 10.5239 5.55961 10.5239 5.55811 10.5239C5.5476 10.5249 5.5356 10.5249 5.52359 10.5249C5.39703 10.5249 5.28198 10.4769 5.19494 10.3984L5.19544 10.3989C5.02085 10.2199 4.89129 9.99642 4.82426 9.74691L4.82176 9.73641C4.73972 9.5089 4.6927 9.24588 4.6927 8.97187C4.6927 8.93637 4.6937 8.90137 4.6952 8.86687V8.87187C4.73472 8.47385 4.81426 8.10934 4.93081 7.76182L4.92031 7.79732L4.02038 8.32235V8.34735C4.15095 8.61836 4.22748 8.93637 4.22748 9.27239C4.22748 9.33389 4.22498 9.39489 4.21998 9.45489L4.22048 9.44689C4.19397 9.96191 4.02939 10.4334 3.76376 10.832L3.77027 10.8219C3.49164 11.264 3.08995 11.6055 2.61272 11.803L2.59622 11.809C2.32759 11.9295 2.01344 12 1.68329 12C1.47419 12 1.2711 11.972 1.07901 11.919L1.09501 11.9225C0.935939 11.869 0.805878 11.763 0.723339 11.626L0.721838 11.623C0.605284 11.454 0.531749 11.2475 0.520244 11.025V11.022C0.514741 10.9715 0.51174 10.913 0.51174 10.8535C0.51174 10.5969 0.570267 10.3539 0.674816 10.1374L0.670314 10.1474C0.957449 9.6579 1.35463 9.26139 1.82886 8.98237L1.84386 8.97437C2.17952 8.74186 2.5652 8.51635 2.96789 8.31985L3.02092 8.29634L3.14597 8.22134C2.9959 8.10467 2.72078 7.90466 2.32059 7.62132C1.78584 7.2633 1.32112 6.90179 0.882914 6.51077L0.89542 6.52177C0.471721 6.15726 0.163076 5.67024 0.0245115 5.11571L0.0205096 5.09671C0.00750352 5.01971 0 4.93121 0 4.8412C0 4.55919 0.072534 4.29418 0.199594 4.06367L0.195592 4.07217C0.475723 3.47014 0.863905 2.96262 1.34013 2.55461L1.34613 2.54961C1.86137 2.06309 2.44465 1.63957 3.07794 1.29655L3.12146 1.27505C3.68723 0.948539 4.34804 0.645027 5.03686 0.401517L5.1219 0.375516C5.7617 0.141506 6.50055 0.00450019 7.27091 0.00200008H7.27191C7.30693 0.00100004 7.34844 0 7.38996 0C8.01076 0 8.59803 0.143506 9.12028 0.399017L9.09726 0.388516C9.54747 0.593525 9.88463 0.979541 10.0197 1.45156L10.0227 1.46356C10.0642 1.62457 10.0877 1.80958 10.0877 2.00008C10.0877 2.3161 10.0222 2.61711 9.90464 2.89012L9.91014 2.87562C9.69604 3.39414 9.3914 3.83566 9.01122 4.19917L9.00972 4.20067C8.62454 4.58219 8.16283 4.8872 7.65009 5.09071L7.62257 5.10021C7.08532 5.33072 6.46153 5.47573 5.80672 5.49973L5.79722 5.50023C5.70117 5.51123 5.59012 5.51723 5.47757 5.51723C5.18143 5.51723 4.8958 5.47473 4.62567 5.39522L4.64718 5.40072C4.40557 5.32372 4.19697 5.20422 4.01988 5.04921L4.02189 5.05071C3.89783 4.94971 3.79678 4.8252 3.72475 4.68369L3.72174 4.67719C3.67172 4.54386 3.66755 4.46469 3.70924 4.43968C3.75092 4.41468 3.78011 4.41052 3.79678 4.42718L3.92184 4.55219C4.0614 4.68169 4.22798 4.7837 4.41207 4.8487L4.42207 4.8517C4.67519 4.93971 4.96733 4.99071 5.27097 4.99071C5.36852 4.99071 5.46456 4.98571 5.55911 4.97521L5.5476 4.97621C6.35698 4.8807 7.08682 4.60469 7.71662 4.18967L7.69811 4.20118C8.23036 3.88466 8.66106 3.44964 8.9642 2.93112L8.97321 2.91412C9.12378 2.69311 9.21382 2.4201 9.21382 2.12609C9.21382 1.94558 9.1798 1.77257 9.11777 1.61357L9.12127 1.62307C8.93419 1.32756 8.63155 1.11955 8.27838 1.06204L8.27138 1.06104C7.99725 0.993541 7.6821 0.95454 7.35845 0.95454C7.09783 0.95454 6.84271 0.979541 6.59609 1.02754L6.6211 1.02354C5.77721 1.17555 5.02285 1.43606 4.32703 1.79407L4.37255 1.77257C2.32226 2.80595 1.26359 3.86416 1.19656 4.94721V4.97171C1.19656 5.40823 1.36814 5.80474 1.64777 6.09775L1.64727 6.09725C1.96592 6.45127 2.31809 6.76378 2.70277 7.03379L2.72228 7.04679C3.07294 7.3088 3.38309 7.57932 3.67172 7.87133L3.67222 7.87233L3.72224 7.92233L5.323 7.04779C5.50558 6.78378 5.72518 6.56077 5.9773 6.38077L5.98531 6.37527C6.1854 6.20726 6.43952 6.09775 6.71815 6.07575L6.72265 6.07525C6.73266 6.07425 6.74416 6.07425 6.75617 6.07425C6.94275 6.07425 7.10283 6.18676 7.17186 6.34776L7.17286 6.35076C7.22539 6.46827 7.2559 6.60577 7.2559 6.75028C7.2559 6.79428 7.2529 6.83778 7.2474 6.88079L7.2479 6.87579L7.19937 7.1223L7.27441 7.07229C7.32643 7.03279 7.39197 7.00929 7.463 7.00929C7.50802 7.00929 7.55054 7.01879 7.58906 7.03579L7.58706 7.03479C7.6831 7.05979 7.75263 7.1458 7.75263 7.2478C7.75263 7.2653 7.75063 7.2823 7.74663 7.2988L7.74713 7.2973L7.6721 7.57232C7.52203 8.17201 7.42215 8.60519 7.37246 8.87187C7.34744 8.95837 7.33344 9.05788 7.33344 9.16088C7.33344 9.18238 7.33394 9.20338 7.33544 9.22438V9.22138C7.34378 9.32139 7.35628 9.37139 7.37296 9.37139C7.38963 9.37139 7.42281 9.32139 7.4725 9.22138L7.54754 9.04638C7.56421 9.04638 7.56421 9.05471 7.54754 9.07138L7.82267 8.49635C8.47297 7.06363 8.82297 6.26359 8.87266 6.09625L9.02273 5.62173C9.0394 5.5884 9.1061 5.55523 9.22282 5.52223C9.34138 5.49023 9.47694 5.47173 9.61701 5.47173C9.62851 5.47173 9.64002 5.47173 9.65102 5.47223H9.64952C9.88297 5.47223 9.99969 5.53056 9.99969 5.64723L9.97468 5.77224C9.91865 5.92625 9.86312 6.11875 9.8201 6.31576L9.8146 6.34726C9.80459 6.41177 9.79859 6.48577 9.79859 6.56177C9.79859 6.66278 9.8086 6.76128 9.82811 6.85679L9.82661 6.84728L9.85162 6.94679C9.90264 7.1553 9.98018 7.33831 10.0817 7.50531L10.0767 7.49681C10.2765 7.1638 10.4682 6.82228 10.652 6.47227C10.7971 6.23076 10.9321 5.95075 11.0407 5.65774L11.0522 5.62273C11.0897 5.43423 11.1327 5.27522 11.1852 5.12021L11.1772 5.14821C11.1939 5.09821 11.2651 5.06071 11.3908 5.03571C11.5099 5.01171 11.6465 4.99821 11.786 4.99821H11.804H11.803C12.0365 4.99821 12.161 5.05654 12.1767 5.17321L12.1267 5.27272C12.0672 5.44073 12.0151 5.64273 11.9801 5.85024L11.9771 5.87274C11.9726 5.92125 11.9696 5.97725 11.9696 6.03425C11.9696 6.15376 11.9816 6.27076 12.0041 6.38377L12.0021 6.37227V6.47177C12.0597 6.68978 12.1452 6.88129 12.2572 7.05479L12.2522 7.04679L12.3273 7.2218C12.745 7.01679 13.2362 6.89679 13.7554 6.89679H13.775H13.774L13.7735 6.89829ZM3.04893 10.5249C3.39659 10.1659 3.61119 9.6759 3.61119 9.13588C3.61119 8.92737 3.57918 8.72636 3.52015 8.53735L3.52415 8.55136L3.12396 8.80137C2.71577 9.03388 2.36261 9.29339 2.04296 9.5884L2.04696 9.5849C1.80435 9.80791 1.62526 10.0964 1.53722 10.4219L1.53422 10.4344C1.45918 10.7428 1.4967 10.9428 1.64677 11.0345C1.73831 11.0765 1.84587 11.101 1.95842 11.101C2.08148 11.101 2.19803 11.072 2.30058 11.02L2.29608 11.022C2.59322 10.914 2.84483 10.7424 3.04493 10.5229L3.04643 10.5214L3.04893 10.5249ZM6.399 8.22284C6.48237 8.00617 6.57408 7.74782 6.67413 7.44781C6.80752 7.04779 6.85338 6.81462 6.81169 6.74828C6.77001 6.68194 6.6908 6.67361 6.57408 6.72328C6.43502 6.79078 6.31846 6.88329 6.22542 6.99679L6.22392 6.99879C6.11987 7.1303 6.02082 7.2773 5.93278 7.43181L5.92378 7.44881C5.82273 7.61432 5.73719 7.80482 5.67766 8.00683L5.67316 8.02383C5.57661 8.28535 5.52059 8.58786 5.52059 8.90287C5.52059 8.94537 5.52159 8.98737 5.52359 9.02938V9.02338C5.54026 9.35639 5.59362 9.53556 5.68366 9.5609C5.77371 9.58623 5.87792 9.46539 5.99631 9.19838C6.11086 8.99187 6.21291 8.75186 6.28895 8.50035L6.29595 8.47335C6.34564 8.35535 6.37966 8.27184 6.398 8.22284H6.399ZM9.1733 9.5479C9.51996 9.39239 9.76408 9.06488 9.79809 8.67736L9.79859 8.67336V8.64836L9.52346 8.99837L9.02373 9.5484C9.01623 9.5544 9.01122 9.5634 9.01122 9.5734C9.01122 9.5834 9.01623 9.5924 9.02323 9.5984C9.03924 9.61473 9.08926 9.59807 9.1733 9.5484V9.5479ZM11.3238 9.07288C11.702 8.96487 11.9741 8.62236 11.9741 8.21684C11.9741 8.21034 11.9741 8.20384 11.9741 8.19734V8.19834C11.9691 8.09834 11.9511 8.00433 11.9216 7.91533L11.9236 7.92283C11.729 8.09584 11.5694 8.30285 11.4539 8.53636L11.4484 8.54786C11.298 8.84753 11.2559 9.02221 11.3223 9.07188L11.3238 9.07288Z" fill="black"/>
</svg>
