<svg width="16" height="7" viewBox="0 0 16 7" fill="none" xmlns="http://www.w3.org/2000/svg">
<path d="M15.3249 2.4988V2.50212C15.3249 2.65572 15.3855 2.79536 15.4848 2.89775C15.6034 3.00747 15.7634 3.07463 15.9387 3.07463C15.9593 3.07463 15.9793 3.07396 16 3.07197H15.9973V3.77014C15.98 3.76881 15.9593 3.76748 15.9387 3.76748C15.7634 3.76748 15.6034 3.83464 15.4841 3.94502L15.4848 3.94435C15.3855 4.04874 15.3249 4.19037 15.3249 4.34597V4.35594V4.35528C15.3249 4.51309 15.3373 4.72919 15.3622 5.00358C15.3871 5.27797 15.3995 5.51491 15.3995 5.71439C15.4035 5.75295 15.4062 5.7975 15.4062 5.84272C15.4062 6.12265 15.3149 6.38131 15.1596 6.59076L15.1622 6.58744C14.9796 6.74569 14.739 6.84211 14.4764 6.84211C14.4405 6.84211 14.4051 6.84011 14.3705 6.83679L14.3751 6.83745H13.8753V6.21508H14.0279V6.18981C14.0426 6.19114 14.0592 6.19247 14.0766 6.19247C14.1925 6.19247 14.2985 6.14859 14.3785 6.07744L14.3778 6.0781C14.4431 5.9757 14.4818 5.8507 14.4818 5.71638C14.4818 5.69045 14.4804 5.66452 14.4771 5.63859V5.64191L14.4271 4.3453C14.4251 4.32136 14.4245 4.29344 14.4245 4.26551C14.4245 4.06071 14.4764 3.86855 14.5677 3.70032L14.5644 3.70631C14.6657 3.56069 14.819 3.45629 14.997 3.42039L15.0016 3.41972V3.36985C14.8217 3.33395 14.6691 3.23487 14.5658 3.09723L14.5644 3.09524C14.4758 2.93366 14.4231 2.7415 14.4231 2.53736C14.4231 2.50545 14.4245 2.47353 14.4271 2.44228V2.44627L14.4771 1.14966C14.4798 1.12705 14.4811 1.10046 14.4811 1.07386C14.4811 0.941537 14.4471 0.817196 14.3878 0.709478L14.3898 0.713467C14.3105 0.64099 14.2045 0.597105 14.0886 0.597105C14.0672 0.597105 14.0459 0.598435 14.0252 0.601759H14.0279H13.878V0.00465447H14.3778C14.4085 0.00132984 14.4438 0 14.4791 0C14.7417 0 14.9823 0.0964147 15.1662 0.255332L15.1649 0.254002C15.3175 0.46013 15.4088 0.718787 15.4088 0.998721C15.4088 1.04394 15.4062 1.08849 15.4015 1.13237L15.4022 1.12705C15.4022 1.32653 15.3897 1.56347 15.3649 1.83786C15.34 2.11225 15.3269 2.33257 15.3255 2.4988H15.3249ZM12.675 3.29671C13.3921 3.52944 13.7507 3.92861 13.7507 4.49425V4.51353C13.7507 4.87259 13.5854 5.19309 13.3261 5.4032L13.3241 5.40453C13.0262 5.6326 12.6476 5.76958 12.2378 5.76958C12.1978 5.76958 12.1578 5.76825 12.1185 5.76559H12.1238C11.8439 5.75894 11.5786 5.70508 11.3334 5.61066L11.3494 5.61598C11.0794 5.52555 10.8462 5.38924 10.6476 5.21503L10.6496 5.21702L11.1741 4.44438C11.45 4.67843 11.8059 4.82605 12.1958 4.84333H12.1991C12.5323 4.84333 12.699 4.73539 12.699 4.51951C12.699 4.41977 12.6239 4.32003 12.4737 4.2203C12.3331 4.14649 12.1671 4.07867 11.9952 4.02614L11.9745 4.02082L11.8745 3.97095C11.1912 3.70498 10.8495 3.32242 10.8495 2.82328C10.8495 2.81331 10.8488 2.80201 10.8488 2.79004C10.8488 2.4456 11.0088 2.13841 11.2594 1.93959L11.2614 1.9376C11.54 1.72615 11.8932 1.59849 12.2758 1.59849C12.3057 1.59849 12.3357 1.59915 12.3657 1.60115H12.3617C12.8809 1.61577 13.3541 1.80129 13.7287 2.10317L13.7247 2.09984L13.2015 2.79669C12.9702 2.60918 12.6763 2.49015 12.3551 2.47287H12.3517C12.0674 2.47287 11.9252 2.57261 11.9252 2.77208C11.9345 2.88978 12.0018 2.99018 12.0985 3.04537L12.1005 3.04603C12.2158 3.11785 12.3484 3.17702 12.489 3.21758L12.5004 3.22024C12.5848 3.25305 12.6439 3.27787 12.6776 3.29472L12.675 3.29671ZM3.70025 4.76886H3.85021L3.99883 5.61664C3.83222 5.68048 3.63894 5.71705 3.43766 5.71705C3.42433 5.71705 3.41034 5.71705 3.39701 5.71638H3.39901C2.68188 5.71638 2.32332 5.26734 2.32332 4.36924V0.628357H1.97276C1.95743 0.626362 1.93943 0.625032 1.92077 0.625032C1.80947 0.625032 1.70883 0.668917 1.63486 0.74073C1.57754 0.845123 1.54355 0.969465 1.54355 1.10112C1.54355 1.12772 1.54488 1.15431 1.54755 1.17958V1.17626L1.57287 2.44893C1.57487 2.47686 1.57621 2.50944 1.57621 2.54268C1.57621 2.74948 1.52556 2.9443 1.43625 3.11652L1.43958 3.10987C1.34028 3.25283 1.18499 3.35124 1.00504 3.37118H1.00237V3.42105C1.18499 3.45762 1.33828 3.56202 1.43825 3.70564L1.43958 3.70764C1.52822 3.86921 1.57954 4.06204 1.57954 4.26618C1.57954 4.2941 1.57887 4.32203 1.57687 4.34929V4.3453C1.57687 4.51153 1.56843 4.74426 1.55155 5.04348V5.64191C1.54955 5.66385 1.54822 5.68912 1.54822 5.71439C1.54822 5.85203 1.58154 5.98102 1.64085 6.09539L1.63886 6.09074C1.71017 6.1692 1.81214 6.2184 1.92677 6.2184C1.9441 6.2184 1.96143 6.21707 1.97876 6.21508H1.97676H2.12738V6.81351H1.62486C1.59487 6.81684 1.55955 6.81817 1.52422 6.81817C1.26097 6.81817 1.02037 6.72175 0.835756 6.56151L0.837089 6.56284C0.684467 6.35671 0.59316 6.09805 0.59316 5.81812C0.59316 5.7729 0.595826 5.72769 0.600492 5.6838L0.599825 5.68912C0.599825 5.48964 0.612266 5.25271 0.637147 4.97831C0.662029 4.70392 0.67447 4.48782 0.67447 4.33001C0.67447 4.32535 0.67447 4.3207 0.67447 4.31538C0.67447 4.16511 0.613154 4.02946 0.514517 3.93105C0.393885 3.82998 0.237264 3.76881 0.0659808 3.76881C0.0433207 3.76881 0.0213271 3.77014 0 3.77213H0.00266589V3.07396C0.0199942 3.07529 0.0406548 3.07662 0.0613154 3.07662C0.236598 3.07662 0.396551 3.00946 0.51585 2.89909L0.515183 2.89975C0.614487 2.79735 0.675136 2.65772 0.675136 2.50412C0.675136 2.50279 0.675136 2.50146 0.675136 2.50013C0.675136 2.3503 0.662696 2.1342 0.637814 1.85182C0.612932 1.56945 0.600492 1.32897 0.600492 1.13038C0.596493 1.09181 0.593827 1.04726 0.593827 1.00205C0.593827 0.722111 0.685134 0.463455 0.840422 0.254002L0.837756 0.257327C1.02037 0.0990743 1.26097 0.00265983 1.52356 0.00265983C1.55955 0.00265983 1.59487 0.00465455 1.62952 0.00797919L1.62486 0.00731431H3.50031V4.4477C3.49898 4.45834 3.49898 4.47031 3.49898 4.48294C3.49898 4.56273 3.52297 4.63654 3.56363 4.69838L3.56296 4.69705C3.59495 4.73894 3.64427 4.7662 3.70025 4.76753V4.76886ZM9.4999 3.29671C10.217 3.52944 10.5756 3.92861 10.5756 4.49425V4.51353C10.5756 4.87259 10.4103 5.19309 10.151 5.4032L10.149 5.40453C9.85113 5.6326 9.47257 5.76958 9.06269 5.76958C9.0227 5.76958 8.98271 5.76825 8.94339 5.76559H8.94872C8.66347 5.76226 8.39222 5.70707 8.14163 5.60999L8.15762 5.61531C7.88437 5.51824 7.64777 5.38259 7.44116 5.21303L7.44516 5.21636L7.96968 4.44371C8.24559 4.67777 8.60149 4.82538 8.99138 4.84267H8.99471C9.32795 4.84267 9.49456 4.73473 9.49456 4.51885C9.49456 4.41911 9.41947 4.31937 9.2693 4.21963C9.12867 4.14582 8.96272 4.078 8.79077 4.02547L8.77011 4.02015L8.6948 3.97028C7.99456 3.70431 7.64444 3.32176 7.64444 2.82262C7.64444 2.81397 7.64377 2.80466 7.64377 2.79469C7.64377 2.4456 7.81039 2.13575 8.06831 1.93893L8.07098 1.93693C8.35556 1.72549 8.71412 1.59849 9.10201 1.59849C9.13067 1.59849 9.15933 1.59915 9.18732 1.60048H9.18332C9.69451 1.61245 10.1604 1.79929 10.5243 2.1025L10.5209 2.09984L9.99708 2.79735C9.77248 2.61317 9.4879 2.49414 9.17666 2.47353H9.17199C8.87208 2.47353 8.72212 2.57327 8.72212 2.77275C8.72279 2.8931 8.79344 2.99749 8.8954 3.0467L8.8974 3.04736C9.02004 3.12117 9.16199 3.18101 9.31262 3.21958L9.32395 3.22224C9.40659 3.25504 9.46457 3.27987 9.4979 3.29671H9.4999ZM5.62503 1.57588C5.64969 1.57455 5.67901 1.57388 5.70767 1.57388C6.1702 1.57388 6.58475 1.78201 6.86067 2.10982L6.86266 2.11181C7.13658 2.4609 7.3012 2.90573 7.3012 3.38914C7.3012 3.41773 7.30054 3.44699 7.2992 3.47558V3.47159C7.2972 3.63183 7.27921 3.78676 7.24655 3.93571L7.24922 3.92041V3.94568H4.87524C4.8979 4.20367 5.02253 4.42842 5.20781 4.58268L5.20915 4.58401C5.36977 4.71766 5.57771 4.79878 5.80497 4.79878C5.83896 4.79878 5.87295 4.79679 5.90628 4.79346L5.90228 4.79413C6.22618 4.78681 6.52676 4.69505 6.78535 4.54013L6.77736 4.54478L7.15058 5.24295C6.76203 5.52289 6.27617 5.69112 5.75032 5.69178C5.72766 5.69245 5.70167 5.69311 5.67501 5.69311C5.14916 5.69311 4.67264 5.48299 4.32474 5.14322C3.97551 4.77684 3.7609 4.2808 3.7609 3.73423C3.7609 3.70764 3.76157 3.6817 3.76224 3.65577V3.65976C3.76024 3.62386 3.7589 3.5813 3.7589 3.53875C3.7589 3.00082 3.96951 2.5121 4.31341 2.14971L4.31274 2.15038C4.63931 1.79663 5.10584 1.57588 5.62369 1.57588H5.62703H5.62503ZM4.87524 3.22224H6.30016C6.30016 2.70714 6.07512 2.44959 5.62503 2.44959C5.43508 2.44959 5.26313 2.52606 5.13783 2.64907C4.99054 2.79868 4.89391 2.99749 4.87524 3.21892V3.22224Z" fill="black"/>
</svg>
