<svg width="60" height="27" viewBox="0 0 60 27" fill="none" xmlns="http://www.w3.org/2000/svg">
<path d="M55.9933 21.1352C55.99 22.4728 55.4572 23.7546 54.5114 24.7004C53.5656 25.6462 52.2837 26.179 50.9462 26.1824H8.51761C7.18005 26.179 5.89823 25.6462 4.95243 24.7004C4.00662 23.7546 3.4738 22.4728 3.47046 21.1352V5.05768C3.4738 3.72012 4.00662 2.4383 4.95243 1.49249C5.89823 0.546693 7.18005 0.0138683 8.51761 0.0105286H50.9462C52.2837 0.0138683 53.5656 0.546693 54.5114 1.49249C55.4572 2.4383 55.99 3.72012 55.9933 5.05768V21.1352Z" fill="url(#paint0_linear_16_203)"/>
<path d="M47.1174 12.7528C48.042 12.9412 48.8751 13.4384 49.4797 14.163C50.0843 14.8875 50.4244 15.7961 50.4442 16.7395C50.4659 17.3055 50.3523 17.8685 50.1128 18.3818C49.8734 18.8951 49.5151 19.344 49.0675 19.6911C47.9309 20.5186 46.5464 20.9343 45.142 20.8696C43.4809 20.851 41.8531 20.4021 40.4174 19.5667C40.4469 19.0805 40.5611 18.6032 40.7547 18.1563C40.9233 17.7093 41.1735 17.2975 41.4926 16.9419C42.5536 17.5568 43.7446 17.9129 44.9691 17.9813C45.3424 18.0029 45.7144 17.9212 46.0443 17.7452C46.1583 17.6837 46.2534 17.5923 46.3195 17.4809C46.3856 17.3695 46.4202 17.2422 46.4196 17.1127C46.4196 16.6166 46.0359 16.2448 45.2684 15.9974L43.8918 15.4767C41.8088 14.7177 40.7673 13.4795 40.7673 11.762C40.7433 11.197 40.8492 10.6341 41.0769 10.1166C41.3046 9.59904 41.6481 9.14064 42.0808 8.77667C43.0586 7.91279 44.3138 7.42808 45.6184 7.41052C46.4357 7.42122 47.2492 7.5252 48.0429 7.72044C48.8068 7.96014 49.5377 8.29443 50.2186 8.71553C50.2414 9.23697 50.1477 9.75693 49.9445 10.2377C49.7935 10.6974 49.5158 11.1051 49.1434 11.4141C48.0528 10.8662 46.862 10.5462 45.6437 10.4738C45.3708 10.4549 45.1001 10.5342 44.8805 10.6973C44.7965 10.766 44.7292 10.853 44.6839 10.9516C44.6386 11.0503 44.6164 11.158 44.6191 11.2665C44.6191 11.6629 44.936 11.9763 45.5699 12.2068L47.1216 12.7528H47.1174Z" fill="#F6F6F6"/>
<path d="M36.0511 12.7528C36.9754 12.9416 37.808 13.4391 38.4121 14.1635C39.0163 14.888 39.3561 15.7964 39.3758 16.7395C39.3975 17.3053 39.2842 17.8681 39.0452 18.3814C38.8061 18.8947 38.4483 19.3436 38.0012 19.6911C36.8644 20.5182 35.48 20.9338 34.0757 20.8696C32.4147 20.8508 30.7869 20.4019 29.3511 19.5667C29.3804 19.0805 29.4946 18.6032 29.6884 18.1563C29.8567 17.7091 30.1069 17.2973 30.4263 16.9419C31.4873 17.5568 32.6784 17.9129 33.9028 17.9813C34.2761 18.0031 34.6482 17.9214 34.978 17.7452C35.0918 17.6835 35.1868 17.5921 35.2529 17.4807C35.319 17.3694 35.3537 17.2422 35.3533 17.1127C35.3533 16.6166 34.9696 16.2448 34.2022 15.9974L32.8255 15.4767C30.7425 14.7177 29.701 13.4795 29.701 11.762C29.6769 11.197 29.7827 10.6341 30.0104 10.1165C30.2381 9.59892 30.5817 9.14054 31.0145 8.77667C31.9916 7.91293 33.246 7.42821 34.55 7.41052C35.3674 7.42111 36.1808 7.52509 36.9745 7.72044C37.7384 7.96008 38.4693 8.29438 39.1502 8.71553C39.173 9.23697 39.0793 9.75693 38.8762 10.2377C38.7251 10.6974 38.4474 11.1051 38.075 11.4141C36.9838 10.866 35.7922 10.5461 34.5732 10.4738C34.3003 10.4547 34.0295 10.534 33.81 10.6973C33.7261 10.7661 33.6589 10.8531 33.6136 10.9517C33.5683 11.0504 33.5461 11.158 33.5486 11.2665C33.5486 11.6629 33.8655 11.9763 34.4994 12.2068L36.0511 12.7528Z" fill="#F6F6F6"/>
<path d="M27.9637 12.9278C27.9712 12.2089 27.8484 11.4946 27.6011 10.8196C27.3751 10.2001 27.0217 9.63492 26.5639 9.16037C26.0988 8.68799 25.5411 8.31689 24.9258 8.07041C24.2555 7.70919 23.5203 7.48421 22.7627 7.40842C21.8872 7.47395 21.0373 7.73396 20.275 8.1695C19.5925 8.47927 18.9929 8.94592 18.5251 9.53143C18.0514 10.1379 17.7024 10.8323 17.4984 11.5743C17.2668 12.4089 17.1533 13.2719 17.1611 14.138C17.1536 15.0288 17.2455 15.9176 17.4351 16.788C17.5964 17.5488 17.9161 18.2672 18.3733 18.8963C18.8222 19.496 19.4154 19.9725 20.0979 20.2814C20.9233 20.6679 21.8239 20.8673 22.7353 20.8654C24.4856 20.8922 26.1999 20.367 27.6349 19.3643C27.5514 18.5139 27.1932 17.7139 26.6145 17.0853C26.0264 17.3128 25.4225 17.4974 24.8077 17.6377C24.3537 17.7406 23.8902 17.7964 23.4247 17.8042C23.1109 17.8349 22.7943 17.796 22.4973 17.6903C22.2003 17.5846 21.9303 17.4148 21.7065 17.1928C21.3301 16.7363 21.1277 16.1611 21.1351 15.5695H27.6349C27.8696 14.709 27.9803 13.8195 27.9637 12.9278ZM21.1161 13.0986C21.1181 12.3712 21.2748 11.6525 21.5757 10.9903C21.7081 10.8044 21.8859 10.6556 22.0923 10.5581C22.2987 10.4607 22.5266 10.4178 22.7543 10.4338C22.9926 10.4192 23.2307 10.4663 23.4456 10.5704C23.6605 10.6746 23.8449 10.8322 23.9813 11.0283C24.2688 11.5853 24.4095 12.2064 24.3903 12.8329V13.107H21.1161V13.0986Z" fill="#F6F6F6"/>
<path d="M57.3024 14.7556C56.9306 15.09 56.6377 15.5026 56.4445 15.9637C56.2512 16.4249 56.1626 16.9231 56.185 17.4226V21.7466C56.2321 22.3698 56.1255 22.9951 55.8744 23.5675C55.6234 24.1398 55.2355 24.6418 54.745 25.0292C53.7354 25.7761 52.5139 26.1815 51.258 26.1866H50.4716V24.0193C50.9473 23.9064 51.3819 23.6625 51.726 23.3151C52.0216 23.0311 52.2532 22.6873 52.4056 22.3067C52.5579 21.9261 52.6274 21.5174 52.6094 21.1078V17.6144C52.5361 16.6529 52.7232 15.6894 53.1512 14.8252C53.7994 13.9971 54.6804 13.3818 55.6811 13.0585C54.4811 12.5941 53.4897 11.7112 52.8898 10.5729C52.6318 9.78139 52.5351 8.94625 52.6052 8.11676V4.91643C52.6528 4.10272 52.3752 3.30343 51.8336 2.69434C51.4606 2.33336 50.9818 2.10136 50.4674 2.03234V0.00842285C51.4056 0.00842285 51.8778 0.00842285 52.4239 0.00842285C53.228 0.0639397 53.989 0.392742 54.5806 0.940271C55.2623 1.48539 55.7581 2.22865 55.9995 3.0675C56.1344 3.54737 56.1956 4.045 56.1808 4.54327V8.24747C56.1473 8.77976 56.2236 9.31325 56.405 9.81483C56.5863 10.3164 56.8688 10.7753 57.2349 11.1632C57.7477 11.6361 58.3644 11.982 59.0353 12.173V13.847C58.3952 14.003 57.8022 14.3111 57.3066 14.7451L57.3024 14.7556Z" fill="#F6F6F6"/>
<path d="M7.57706 0.0105286H6.8729C6.06862 0.0655429 5.30746 0.394412 4.71616 0.942375C3.99918 1.45427 3.49446 2.21098 3.29731 3.0696C3.22171 3.55765 3.19488 4.05201 3.21719 4.54538V8.24958C3.23643 8.78941 3.14434 9.32742 2.94667 9.83012C2.749 10.3328 2.44997 10.7895 2.06819 11.1716C1.45006 11.637 0.747772 11.9785 0 12.1772V13.8491C0.720022 14.0085 1.39959 14.3142 1.99651 14.7472C2.38248 15.0753 2.69153 15.4843 2.90175 15.9452C3.11198 16.4061 3.21823 16.9076 3.21298 17.4141V21.7382C3.14842 22.3538 3.23705 22.9758 3.47099 23.5488C3.70492 24.1219 4.0769 24.6283 4.55382 25.0228C5.5632 25.7705 6.78476 26.1767 8.04087 26.1824H8.92845V24.0193C8.4249 23.9014 7.95888 23.6593 7.57284 23.3151C7.29392 23.0234 7.08 22.6758 6.94518 22.2953C6.81036 21.9148 6.7577 21.5101 6.79068 21.1078V17.6165C6.83599 16.6454 6.61355 15.6806 6.14766 14.8273C5.49949 13.9992 4.61843 13.3839 3.61776 13.0606C4.81729 12.5965 5.80865 11.7145 6.40908 10.5771C6.7071 9.79412 6.8385 8.9576 6.79489 8.12097V4.91854C6.71971 4.11906 6.95949 3.3218 7.46321 2.69644C7.8144 2.40958 8.23068 2.21338 8.67546 2.1251H9.57779V0.0105286H7.57706Z" fill="#F6F6F6"/>
<path d="M15.8895 17.5575H15.2149C14.4812 17.5575 14.2051 17.1717 14.2051 16.3959V2.1462C14.2453 1.49561 14.0441 0.853046 13.64 0.341539C13.3238 -0.00421475 12.7735 2.39137e-06 11.9893 2.39137e-06H10.465H10.2858V17.0895C10.2165 18.0212 10.4794 18.9474 11.0279 19.7037C11.3461 20.0087 11.7268 20.2407 12.1437 20.3838C12.5605 20.5268 13.0035 20.5775 13.4419 20.5323C14.3389 20.5219 15.2337 20.4387 16.1172 20.2835C16.1835 19.9299 16.209 19.5698 16.1931 19.2104C16.1907 18.6475 16.0894 18.0895 15.8938 17.5617L15.8895 17.5575Z" fill="#F6F6F6"/>
<defs>
<linearGradient id="paint0_linear_16_203" x1="29.7329" y1="0.0105286" x2="29.7329" y2="26.1824" gradientUnits="userSpaceOnUse">
<stop offset="0.15" stop-color="#2A4F84"/>
<stop offset="0.388" stop-color="#294E82"/>
<stop offset="1" stop-color="#172E4E"/>
</linearGradient>
</defs>
</svg>
