<svg width="33" height="33" viewBox="0 0 33 33" fill="none" xmlns="http://www.w3.org/2000/svg">
<path d="M0.689889 18.1656C-0.229963 17.2457 -0.229963 15.7543 0.689889 14.8345L14.8345 0.689889C15.7543 -0.229963 17.2457 -0.229963 18.1656 0.689889L32.3101 14.8345C33.23 15.7543 33.23 17.2457 32.3101 18.1656L18.1656 32.3101C17.2457 33.23 15.7543 33.23 14.8345 32.3101L0.689889 18.1656Z" fill="#EE513B"/>
<path d="M11.9611 3.60825L10.5288 5.04061L14.2282 8.74004C14.0786 9.06111 13.995 9.41919 13.995 9.79679C13.995 10.8688 14.6685 11.7835 15.6155 12.1407V21.1905C14.6685 21.5477 13.995 22.4624 13.995 23.5345C13.995 24.9176 15.1163 26.0389 16.4995 26.0389C17.8826 26.0389 19.0039 24.9176 19.0039 23.5345C19.0039 22.5626 18.4503 21.7199 17.6413 21.3048V12.1531L21.1776 15.6894C21.0352 16.004 20.956 16.3532 20.956 16.7209C20.956 18.1041 22.0773 19.2254 23.4605 19.2254C24.8436 19.2254 25.9649 18.1041 25.9649 16.7209C25.9649 15.3377 24.8436 14.2164 23.4605 14.2164C23.1916 14.2164 22.9328 14.2587 22.69 14.3371L18.8921 10.5392C18.9648 10.3046 19.0039 10.0552 19.0039 9.79679C19.0039 8.41359 17.8826 7.2923 16.4995 7.2923C16.241 7.2923 15.9917 7.33146 15.7571 7.40417L11.9611 3.60825Z" fill="white"/>
</svg>
