<svg width="16" height="16" viewBox="0 0 16 16" fill="none" xmlns="http://www.w3.org/2000/svg">
<path d="M15.6965 7.28674L8.71059 0.301414C8.52387 0.115231 8.2662 0 7.98133 0C7.69645 0 7.43878 0.115231 7.25207 0.301414L5.80475 1.7514L7.6447 3.59136C7.76207 3.55028 7.89704 3.52681 8.03788 3.52681C8.71486 3.52681 9.26327 4.07522 9.26327 4.7522C9.26327 4.89571 9.23873 5.03281 9.19339 5.16084L9.19605 5.15231L10.9683 6.92558C11.0867 6.88344 11.2238 6.8589 11.3662 6.8589C12.0427 6.8589 12.5911 7.40731 12.5911 8.08376C12.5911 8.7602 12.0427 9.30861 11.3662 9.30861C10.6898 9.30861 10.1414 8.7602 10.1414 8.08376C10.1414 7.91678 10.175 7.7578 10.2353 7.6127L10.2321 7.6207L8.57295 5.97013V10.3201C8.98053 10.5255 9.25527 10.9405 9.25527 11.4196C9.25527 12.0971 8.70579 12.6466 8.02827 12.6466C7.35076 12.6466 6.80128 12.0971 6.80128 11.4196C6.80128 11.0814 6.93785 10.7757 7.15924 10.5537C7.27181 10.4412 7.40571 10.35 7.55455 10.2859L7.56255 10.2827V5.8901C7.11336 5.70125 6.80395 5.26434 6.80395 4.75593C6.80395 4.58522 6.83862 4.42305 6.90157 4.27527L6.89837 4.28328L5.09042 2.46679L0.299813 7.2542C0.114164 7.44145 0 7.69912 0 7.984C0 8.26887 0.114697 8.52654 0.300347 8.71379L7.28674 15.6981C7.47293 15.8848 7.7306 16 8.01547 16C8.30035 16 8.55748 15.8848 8.7442 15.6981L15.6975 8.74473C15.8842 8.55855 16 8.30035 16 8.016C16 7.73166 15.8842 7.47346 15.6975 7.28728L15.6965 7.28674Z" fill="black"/>
</svg>
