<svg width="16" height="18" viewBox="0 0 16 18" fill="none" xmlns="http://www.w3.org/2000/svg">
<path d="M8 17.2308C7.75156 17.2308 7.51964 17.1674 7.30436 17.0566L5.10145 15.8061C4.77019 15.6319 4.93582 15.5687 5.0352 15.5369C5.4824 15.3945 5.56521 15.3629 6.02899 15.1095C6.07868 15.0779 6.14493 15.0937 6.19462 15.1254L7.88407 16.091C7.95033 16.1226 8.03309 16.1226 8.08284 16.091L14.6915 12.4343C14.7577 12.4027 14.7909 12.3394 14.7909 12.2602V4.96265C14.7909 4.8835 14.7577 4.82018 14.6915 4.78852L8.08284 1.14766C8.01658 1.116 7.93375 1.116 7.88407 1.14766L1.27536 4.78852C1.20911 4.82018 1.17599 4.89933 1.17599 4.96265V12.2602C1.17599 12.3235 1.20911 12.4027 1.27536 12.4343L3.08074 13.4316C4.05797 13.9065 4.67081 13.3525 4.67081 12.7984V5.59584C4.67081 5.50086 4.75362 5.40588 4.86956 5.40588H5.71428C5.81367 5.40588 5.91304 5.48503 5.91304 5.59584V12.7984C5.91304 14.049 5.20083 14.7772 3.95859 14.7772C3.57764 14.7772 3.27951 14.7772 2.43479 14.3814L0.695651 13.4316C0.265011 13.1942 0 12.7509 0 12.276V4.97848C0 4.50358 0.265011 4.06035 0.695651 3.8229L7.30436 0.166213C7.7184 -0.0554044 8.2816 -0.0554044 8.69564 0.166213L15.3044 3.8229C15.735 4.06035 16 4.50358 16 4.97848V12.276C16 12.7509 15.735 13.1942 15.3044 13.4316L8.69564 17.0883C8.48036 17.1832 8.23185 17.2308 8 17.2308ZM10.0372 12.2127C7.13869 12.2127 6.54244 10.9463 6.54244 9.86992C6.54244 9.7749 6.62524 9.67996 6.74124 9.67996H7.60247C7.70189 9.67996 7.78466 9.74326 7.78466 9.8382C7.91716 10.6772 8.29811 11.0888 10.0538 11.0888C11.4452 11.0888 12.0414 10.788 12.0414 10.0757C12.0414 9.66413 11.8758 9.36333 9.70604 9.15754C7.90066 8.98341 6.77433 8.60348 6.77433 7.22634C6.77433 5.94409 7.90066 5.18426 9.7888 5.18426C11.9089 5.18426 12.9524 5.88077 13.0849 7.40041C13.0849 7.44795 13.0683 7.49543 13.0352 7.5429C13.002 7.57455 12.9524 7.6062 12.9027 7.6062H12.0414C11.9586 7.6062 11.8758 7.5429 11.8592 7.46378C11.6604 6.59312 11.147 6.30818 9.7888 6.30818C8.26502 6.30818 8.08284 6.81473 8.08284 7.19462C8.08284 7.65374 8.29811 7.79616 10.352 8.04949C12.3892 8.30275 13.3499 8.66685 13.3499 10.0282C13.3333 11.4212 12.1408 12.2127 10.0372 12.2127Z" fill="black"/>
</svg>
