<svg width="30" height="34" viewBox="0 0 30 34" fill="none" xmlns="http://www.w3.org/2000/svg">
<path d="M15 33.8296C14.5436 33.8297 14.0952 33.7097 13.7 33.4816L9.56303 31.0325C8.94564 30.687 9.24648 30.565 9.45067 30.4937C10.1073 30.2908 10.736 30.0067 11.3222 29.6479C11.3713 29.6252 11.4253 29.6154 11.4792 29.6194C11.5331 29.6235 11.5851 29.6412 11.6303 29.6709L14.8091 31.5593C14.8683 31.5906 14.9342 31.607 15.0012 31.607C15.0682 31.607 15.1341 31.5906 15.1933 31.5593L27.5896 24.4043C27.6476 24.3695 27.6956 24.3203 27.7289 24.2614C27.7621 24.2025 27.7795 24.136 27.7793 24.0684V9.75587C27.7793 9.68718 27.7617 9.61963 27.728 9.55974C27.6944 9.49985 27.6459 9.44964 27.5872 9.41395L15.1909 2.26493C15.1324 2.23201 15.0665 2.21472 14.9994 2.21472C14.9323 2.21472 14.8664 2.23201 14.8079 2.26493L2.41886 9.41636C2.35976 9.45131 2.31069 9.50093 2.2764 9.56041C2.24211 9.61989 2.22376 9.68722 2.22313 9.75587V24.0624C2.22329 24.1298 2.2414 24.196 2.27558 24.2542C2.30976 24.3124 2.35879 24.3604 2.41765 24.3934L5.81757 26.3555C7.66009 27.2762 8.78857 26.1912 8.78857 25.1014V10.9762C8.78857 10.88 8.82676 10.7878 8.89473 10.7199C8.96271 10.6519 9.0549 10.6137 9.15103 10.6137H10.7217C10.8178 10.6137 10.91 10.6519 10.978 10.7199C11.046 10.7878 11.0842 10.88 11.0842 10.9762V25.1026C11.0842 27.5613 9.74547 28.9689 7.41362 28.9689C6.40763 28.9864 5.41742 28.7174 4.55861 28.1932L1.30005 26.3241C0.904464 26.0938 0.576227 25.7637 0.348105 25.3668C0.119982 24.9699 -4.37936e-05 24.5201 8.5926e-06 24.0624V9.75587C-0.00116722 9.29739 0.118351 8.84667 0.346554 8.44901C0.574756 8.05136 0.903603 7.72077 1.30005 7.49047L13.6975 0.332998C14.0969 0.114513 14.5448 0 15 0C15.4552 0 15.9031 0.114513 16.3025 0.332998L28.6987 7.49047C29.0943 7.72038 29.4226 8.05001 29.6509 8.44647C29.8793 8.84292 29.9996 9.29233 30 9.74983V24.0624C29.9993 24.5201 29.8789 24.9697 29.6506 25.3665C29.4223 25.7633 29.0941 26.0935 28.6987 26.3241L16.3025 33.4816C15.9064 33.7101 15.4572 33.8301 15 33.8296Z" fill="#83CD29"/>
<path d="M12.6489 19.2742C12.6489 19.1781 12.6871 19.0859 12.7551 19.0179C12.8231 18.9499 12.9153 18.9117 13.0114 18.9117H14.6147C14.7004 18.912 14.7832 18.9426 14.8484 18.9981C14.9136 19.0537 14.9571 19.1305 14.9711 19.215C15.2128 20.8473 15.9377 21.6701 19.2156 21.6701C21.8265 21.6701 22.9393 21.0793 22.9393 19.6935C22.9393 18.8948 22.624 18.3016 18.5656 17.9041C15.1729 17.5682 13.0754 16.8167 13.0754 14.1055C13.0754 11.6045 15.1838 10.1123 18.7178 10.1123C22.6892 10.1123 24.655 11.4909 24.9039 14.4486C24.9077 14.498 24.9013 14.5476 24.8852 14.5944C24.869 14.6413 24.8435 14.6843 24.8101 14.7209C24.7767 14.7574 24.7362 14.7868 24.691 14.8071C24.6458 14.8273 24.597 14.8382 24.5474 14.8388H22.9333C22.8523 14.8377 22.774 14.8095 22.7109 14.7587C22.6479 14.7079 22.6036 14.6374 22.5853 14.5585C22.1999 12.8417 21.2563 12.2931 18.719 12.2931C15.8676 12.2931 15.5366 13.2863 15.5366 14.0305C15.5366 14.9319 15.928 15.1953 19.7774 15.7039C23.5869 16.2078 25.3968 16.9206 25.3968 19.598C25.3968 22.2996 23.1447 23.8461 19.2168 23.8461C13.7859 23.8533 12.6489 21.3632 12.6489 19.2742Z" fill="#83CD29"/>
</svg>
