<svg width="8" height="16" viewBox="0 0 8 16" fill="none" xmlns="http://www.w3.org/2000/svg">
<path d="M3.49656 11.8333C3.49656 11.8333 3.49656 6.30557 3.68037 6.3061C3.82249 6.3061 4.00737 13.4365 4.00737 13.4365C3.75303 13.4066 3.49656 12.2633 3.49656 11.8333ZM7.05938 6.37012C6.56834 4.22754 5.49276 2.38533 4.0095 0.963521L4.00576 0.96032C3.82516 0.685028 3.66006 0.36919 3.52755 0.0362787L3.51473 0C3.51526 0.0106702 3.51526 0.0234745 3.51526 0.0362787C3.51526 0.337713 3.38008 0.607136 3.16689 0.787996L3.16529 0.789063C1.25564 2.40774 0.0406077 4.79306 0.000534022 7.46222V7.46916C-2.93534e-07 7.50223 0 7.54118 0 7.58013C0 10.2247 1.27434 12.5722 3.2433 14.0436L3.26413 14.0586L3.31062 14.0922C3.39647 14.7267 3.46984 15.3626 3.53076 16H3.85188C3.94058 15.2045 4.06026 14.5083 4.21682 13.8254L4.19224 13.9529C4.40383 13.8062 4.5887 13.6542 4.76129 13.4893L4.75968 13.4909C6.2563 12.1054 7.19028 10.1314 7.19028 7.94025C7.19028 7.9077 7.19028 7.87569 7.18975 7.84315V7.84795C7.18815 7.32457 7.14059 6.81294 7.05029 6.31624L7.05831 6.36906L7.05938 6.37012Z" fill="black"/>
</svg>
