<svg width="16" height="15" viewBox="0 0 16 15" fill="none" xmlns="http://www.w3.org/2000/svg">
<path d="M8.00372 5.782C8.27845 5.78202 8.54704 5.86372 8.77566 6.01683C9.00428 6.16993 9.18273 6.38759 9.28853 6.64241C9.39433 6.89722 9.42276 7.1778 9.37024 7.44882C9.31771 7.71984 9.18658 7.96919 8.99335 8.16546C8.80013 8.36174 8.55344 8.49617 8.28436 8.55184C8.01527 8.60752 7.73581 8.58193 7.48116 8.47831C7.22651 8.3747 7.00805 8.19768 6.85329 7.96954C6.69853 7.74141 6.61439 7.47236 6.61145 7.19626C6.61047 7.01152 6.6457 6.82839 6.71514 6.65734C6.78458 6.48628 6.88686 6.33065 7.01615 6.19932C7.14543 6.068 7.29919 5.96355 7.46864 5.89195C7.63809 5.82034 7.81991 5.78298 8.00372 5.782ZM4.55654 13.1825C5.02559 13.4669 6.0456 13.0329 7.23685 11.9104C6.8387 11.4557 6.46348 10.9812 6.11261 10.4887C5.51209 10.4211 4.91561 10.3212 4.32573 10.1894C3.94602 11.7907 4.08748 12.8907 4.55654 13.1825ZM5.08516 8.88738L4.86924 8.50575C4.78507 8.71593 4.71298 8.93079 4.65333 9.14928C4.85435 9.19417 5.07771 9.23159 5.30852 9.269L5.08516 8.88738ZM9.9544 8.31868L10.5575 7.19626L9.9544 6.07383C9.73104 5.67724 9.49279 5.32555 9.27687 4.97386C8.87483 4.95141 8.45044 4.95141 8.00372 4.95141C7.557 4.95141 7.13262 4.95141 6.73057 4.95141C6.51466 5.3031 6.27641 5.6548 6.05305 6.05139L5.44998 7.19626L6.05305 8.31868C6.27641 8.71527 6.51466 9.06697 6.73057 9.41866C7.13262 9.41866 7.557 9.41866 8.00372 9.41866C8.45044 9.41866 8.87483 9.41866 9.27687 9.41866C9.49279 9.06697 9.73104 8.71527 9.9544 8.31868ZM8.00372 3.29022C7.86226 3.45485 7.71336 3.62695 7.56445 3.82899H8.443C8.29409 3.62695 8.14518 3.45485 8.00372 3.29022ZM8.00372 11.1023C8.14518 10.9377 8.29409 10.7656 8.443 10.5635H7.56445C7.71336 10.7656 7.86226 10.9377 8.00372 11.1023ZM11.4435 1.21C10.9819 0.92565 9.9544 1.35965 8.77059 2.48208C9.16874 2.93681 9.54396 3.41132 9.89483 3.90382C10.4948 3.96152 11.0913 4.05145 11.6817 4.1732C12.0614 2.57187 11.92 1.4719 11.4435 1.18007M10.9223 5.47521L11.1382 5.85683C11.2224 5.64666 11.2945 5.43179 11.3541 5.21331C11.1531 5.16841 10.9297 5.131 10.6989 5.09358L10.9223 5.47521ZM12.0019 0.23723C13.0963 0.865788 13.2154 2.51949 12.7464 4.45006C14.6375 5.01127 16 5.94663 16 7.20374C16 8.46086 14.6375 9.39621 12.7464 9.95742C13.208 11.888 13.0889 13.5417 12.0019 14.1703C10.9148 14.7988 9.43322 14.0805 8.00372 12.7111C6.57422 14.0805 5.0926 14.7988 3.99814 14.1703C2.90368 13.5417 2.792 11.9254 3.25361 9.95742C1.36249 9.39621 0 8.46086 0 7.20374C0 5.94663 1.36249 5.00379 3.25361 4.44258C2.792 2.51201 2.91112 0.858305 3.99814 0.229747C5.08516 -0.39881 6.57422 0.319541 8.00372 1.6889C9.43322 0.319541 10.9148 -0.39881 12.0019 0.229747M11.7859 7.19626C12.0445 7.7471 12.2732 8.31164 12.4709 8.88738C14.0344 8.41596 14.913 7.74251 14.913 7.19626C14.913 6.65001 14.0121 5.97656 12.4709 5.50514C12.2732 6.08088 12.0445 6.64541 11.7859 7.19626ZM4.2215 7.19626C3.96292 6.64541 3.73426 6.08088 3.53653 5.50514C1.97301 5.97656 1.09446 6.65001 1.09446 7.19626C1.09446 7.74251 1.99535 8.41596 3.53653 8.88738C3.73426 8.31164 3.96292 7.7471 4.2215 7.19626ZM10.9223 8.88738L10.6989 9.269C10.9297 9.269 11.1531 9.19417 11.3541 9.14928C11.2945 8.93079 11.2224 8.71593 11.1382 8.50575L10.9223 8.88738ZM8.74825 11.9104C9.93206 13.0329 10.9819 13.4669 11.4211 13.1825C11.8604 12.8982 12.0391 11.8206 11.6594 10.1894C11.069 10.3111 10.4725 10.4011 9.8725 10.4588C9.52244 10.9615 9.14721 11.446 8.74825 11.9104ZM5.08516 5.50514L5.30852 5.12352C5.07771 5.12352 4.85435 5.19834 4.65333 5.24324C4.71298 5.46173 4.78507 5.67659 4.86924 5.88676L5.08516 5.50514ZM7.25919 2.48208C6.05305 1.35965 5.02559 0.92565 4.55654 1.21C4.08748 1.49434 3.94602 2.57187 4.32573 4.20313C4.91615 4.08138 5.51263 3.99145 6.11261 3.93375C6.46992 3.43052 6.85261 2.946 7.25919 2.48208Z" fill="black"/>
</svg>
