<svg width="42" height="37" viewBox="0 0 42 37" fill="none" xmlns="http://www.w3.org/2000/svg">
<g filter="url(#filter0_d_19_668)">
<path d="M24.4616 17.2201C24.4616 15.3165 22.87 13.7731 20.9064 13.7731C18.9432 13.7731 17.3513 15.3165 17.3513 17.2201C17.3513 19.1239 18.9432 20.6672 20.9064 20.6672C22.87 20.6672 24.4616 19.1239 24.4616 17.2201Z" fill="#53C1DE"/>
<path fill-rule="evenodd" clip-rule="evenodd" d="M32.4524 10.8206C33.2031 7.86268 34.1468 2.37744 30.8201 0.517773C27.5089 -1.33379 23.2 2.21414 20.9247 4.34378C18.656 2.23536 14.2261 -1.2974 10.9022 0.568176C7.5923 2.42595 8.613 7.82024 9.3804 10.7968C6.29282 11.647 1 13.4784 1 17.2201C1 20.9512 6.28731 22.9437 9.35662 23.7931C8.58638 26.7861 7.61678 32.1033 10.9309 33.957C14.2673 35.8222 18.6834 32.3735 20.9798 30.2206C23.2697 32.3628 27.5372 35.834 30.849 33.9752C34.1712 32.1105 33.306 26.6988 32.5385 23.705C35.5139 22.8537 40.8125 20.9046 40.8125 17.2201C40.8125 13.5144 35.4913 11.6681 32.4524 10.8206ZM32.0753 22.1185C31.5714 20.5719 30.8912 18.9273 30.0593 17.2283C30.8534 15.5695 31.5071 13.9461 31.997 12.4094C34.2247 13.0357 39.1118 14.4669 39.1118 17.2201C39.1118 19.9991 34.4221 21.4439 32.0753 22.1185ZM29.9968 32.548C27.5257 33.9348 23.8552 30.6153 22.1641 29.0378C23.286 27.848 24.4071 26.465 25.5013 24.9291C27.4261 24.7636 29.2443 24.4929 30.8933 24.1233C31.4335 26.2409 32.4787 31.155 29.9968 32.548ZM11.7807 32.5283C9.30944 31.1466 10.439 26.4018 11.0056 24.1971C12.6363 24.5469 14.4415 24.7985 16.3708 24.9502C17.4722 26.453 18.6258 27.8344 19.7883 29.0441C18.352 30.3913 14.2635 33.9163 11.7807 32.5283ZM2.70064 17.2201C2.70064 14.4307 7.55854 13.0098 9.8371 12.3851C10.3354 13.9563 10.9889 15.5991 11.7775 17.2603C10.9787 18.9462 10.3158 20.615 9.81296 22.2048C7.64031 21.6017 2.70064 20.0112 2.70064 17.2201ZM11.7543 1.99532C14.2357 0.602707 18.0858 3.99429 19.733 5.52084C18.5764 6.72505 17.4334 8.096 16.3415 9.59017C14.4691 9.75844 12.6767 10.0286 11.0289 10.3907C10.4107 7.98998 9.27559 3.38644 11.7543 1.99532ZM26.7179 11.3825C27.9882 11.5379 29.2053 11.7447 30.3481 11.9976C30.005 13.0638 29.5774 14.1787 29.0738 15.3216C28.3438 13.9786 27.5601 12.6625 26.7179 11.3825ZM20.9252 6.69925C21.7097 7.52319 22.4953 8.4433 23.2682 9.44153C21.7005 9.36961 20.1303 9.36934 18.5626 9.44047C19.3362 8.4515 20.1286 7.53276 20.9252 6.69925ZM12.7533 15.3204C12.258 14.1815 11.8343 13.0617 11.4882 11.9802C12.6242 11.7338 13.8356 11.5324 15.0976 11.3795C14.2531 12.6567 13.4707 13.9722 12.7533 15.3204ZM15.1338 23.1784C13.8301 23.0374 12.6004 22.8461 11.4648 22.6065C11.8163 21.506 12.2494 20.3621 12.7553 19.1986C13.4825 20.5609 14.2768 21.8892 15.1338 23.1784ZM20.9723 27.8575C20.1663 27.0141 19.3622 26.0813 18.577 25.078C20.1535 25.138 21.7332 25.1381 23.3096 25.0699C22.5343 26.0915 21.7515 27.0257 20.9723 27.8575ZM29.09 19.1395C29.6221 20.3155 30.0707 21.4532 30.427 22.5351C29.2726 22.7905 28.0263 22.9962 26.7132 23.149C27.5616 21.8447 28.3577 20.5082 29.09 19.1395ZM24.5521 23.3488C22.1406 23.5159 19.714 23.5141 17.3016 23.3625C15.9309 21.4211 14.7106 19.3794 13.6573 17.2598C14.7056 15.1445 15.9169 13.1068 17.2812 11.1685C19.6953 10.9916 22.1242 10.991 24.5383 11.1695C25.8909 13.1077 27.1004 15.1402 28.173 17.2363C27.1132 19.3505 25.8954 21.3923 24.5521 23.3488ZM29.9706 1.9463C32.4527 3.33435 31.3479 8.26409 30.8056 10.4078C29.1539 10.0382 27.3603 9.76322 25.4824 9.59229C24.3884 8.08199 23.2549 6.70864 22.1171 5.51999C23.7854 3.96056 27.5126 0.571825 29.9706 1.9463Z" fill="#53C1DE"/>
</g>
<defs>
<filter id="filter0_d_19_668" x="0" y="0" width="41.8125" height="36.5042" filterUnits="userSpaceOnUse" color-interpolation-filters="sRGB">
<feFlood flood-opacity="0" result="BackgroundImageFix"/>
<feColorMatrix in="SourceAlpha" type="matrix" values="0 0 0 0 0 0 0 0 0 0 0 0 0 0 0 0 0 0 127 0" result="hardAlpha"/>
<feOffset dy="1"/>
<feGaussianBlur stdDeviation="0.5"/>
<feComposite in2="hardAlpha" operator="out"/>
<feColorMatrix type="matrix" values="0 0 0 0 0 0 0 0 0 0 0 0 0 0 0 0 0 0 0.64 0"/>
<feBlend mode="normal" in2="BackgroundImageFix" result="effect1_dropShadow_19_668"/>
<feBlend mode="normal" in="SourceGraphic" in2="effect1_dropShadow_19_668" result="shape"/>
</filter>
</defs>
</svg>
