<svg width="38" height="36" viewBox="0 0 38 36" fill="none" xmlns="http://www.w3.org/2000/svg">
<g filter="url(#filter0_d_16_235)">
<path d="M25.9442 23.7454C27.2727 23.6085 28.2806 22.4692 28.2347 21.1017C28.189 19.7346 27.0436 18.6408 25.6692 18.6408H25.5777C24.1574 18.6863 23.058 19.8713 23.1039 21.2841C23.1497 21.9678 23.4245 22.5602 23.8368 22.9704C22.2792 26.0241 19.897 28.2573 16.3238 30.1259C13.8957 31.402 11.3762 31.8579 8.85658 31.5389C6.79502 31.2654 5.19161 30.354 4.18361 28.8497C2.71773 26.6165 2.58034 24.201 3.81728 21.7855C4.68774 20.0536 6.06194 18.7774 6.9324 18.1393C6.74918 17.5468 6.47424 16.5442 6.33686 15.815C-0.305847 20.6005 0.381388 27.0724 2.39711 30.1259C3.90882 32.4048 6.97824 33.8177 10.3683 33.8177C11.2845 33.8177 12.2007 33.7264 13.117 33.4987C18.9809 32.3593 23.4246 28.8954 25.9442 23.7454ZM34.0071 18.0938C30.5254 14.0375 25.3944 11.8043 19.5305 11.8043H18.7977C18.3854 10.984 17.5149 10.4369 16.5528 10.4369H16.4612C15.0411 10.4826 13.9418 11.6675 13.9875 13.0804C14.0333 14.4477 15.1785 15.5415 16.5528 15.5415H16.6444C17.6523 15.496 18.5228 14.8579 18.8892 13.9919H19.7138C23.1956 13.9919 26.4939 14.9945 29.4718 16.9544C31.7622 18.4584 33.4115 20.4182 34.3277 22.7881C35.1065 24.7023 35.0607 26.571 34.236 28.1662C32.9534 30.5817 30.8003 31.9034 27.9599 31.9034C26.1274 31.9034 24.3867 31.3565 23.4704 30.9463C22.9665 31.402 22.0502 32.1312 21.4088 32.5872C23.3788 33.4986 25.3944 34 27.3185 34C31.7164 34 34.9691 31.5843 36.2061 29.1688C37.5345 26.5253 37.4428 21.9678 34.0071 18.0938ZM10.7348 24.52C10.7806 25.8872 11.9259 26.9809 13.3002 26.9809H13.3919C14.812 26.9355 15.9114 25.7505 15.8656 24.3377C15.8199 22.9703 14.6745 21.8766 13.3002 21.8766H13.2087C13.117 21.8766 12.9795 21.8766 12.888 21.922C11.0097 18.8229 10.2309 15.4503 10.5058 11.8042C10.6889 9.06959 11.6052 6.69957 13.2087 4.73974C14.5371 3.0534 17.1026 2.23305 18.8435 2.18758C23.6994 2.09637 25.7608 8.11241 25.8983 10.528C26.4939 10.6647 27.5018 10.9838 28.189 11.2118C27.6392 3.82844 23.058 0 18.6603 0C14.5371 0 10.7348 2.96248 9.2229 7.33779C7.11564 13.1715 8.48997 18.7774 11.0554 23.1983C10.8265 23.5173 10.6889 24.0186 10.7348 24.52Z" fill="#764ABC"/>
</g>
<defs>
<filter id="filter0_d_16_235" x="0" y="0" width="38" height="36" filterUnits="userSpaceOnUse" color-interpolation-filters="sRGB">
<feFlood flood-opacity="0" result="BackgroundImageFix"/>
<feColorMatrix in="SourceAlpha" type="matrix" values="0 0 0 0 0 0 0 0 0 0 0 0 0 0 0 0 0 0 127 0" result="hardAlpha"/>
<feOffset dy="1"/>
<feGaussianBlur stdDeviation="0.5"/>
<feComposite in2="hardAlpha" operator="out"/>
<feColorMatrix type="matrix" values="0 0 0 0 0 0 0 0 0 0 0 0 0 0 0 0 0 0 0.64 0"/>
<feBlend mode="normal" in2="BackgroundImageFix" result="effect1_dropShadow_16_235"/>
<feBlend mode="normal" in="SourceGraphic" in2="effect1_dropShadow_16_235" result="shape"/>
</filter>
</defs>
</svg>
