<svg width="16" height="16" viewBox="0 0 16 16" fill="none" xmlns="http://www.w3.org/2000/svg">
<path d="M11.0992 10.5971C11.6643 10.5408 12.1023 10.0674 12.1023 9.49218C12.1023 9.46939 12.1016 9.44661 12.1004 9.42383V9.42699C12.0706 8.81756 11.5726 8.33469 10.9606 8.32836H10.9195C10.3069 8.35114 9.81893 8.853 9.81893 9.46876C9.81893 9.48268 9.81893 9.49661 9.81956 9.51116V9.50926C9.83602 9.8086 9.95879 10.0769 10.1499 10.2794L10.1493 10.2788C9.39808 11.6799 8.25009 12.7849 6.85592 13.4627L6.81225 13.4817C6.05789 13.8994 5.15797 14.1449 4.20047 14.1449C3.95809 14.1449 3.71887 14.1291 3.48535 14.0987L3.51319 14.1019C2.65188 14.019 1.91018 13.5677 1.43933 12.9096L1.43364 12.9007C1.0938 12.4229 0.890652 11.828 0.890652 11.1851C0.890652 10.6554 1.02861 10.1579 1.271 9.72633L1.2634 9.74152C1.60957 9.08589 2.08168 8.54037 2.65188 8.12015L2.66517 8.11129C2.55695 7.82461 2.46012 7.47907 2.39178 7.12404L2.38482 7.08228C-0.578831 9.2017 -0.278226 12.1008 0.621689 13.4709C1.40832 14.4746 2.62087 15.1138 3.98277 15.1138C4.04479 15.1138 4.10617 15.1125 4.16756 15.11H4.1587C4.18085 15.1106 4.20743 15.1106 4.23401 15.1106C4.64347 15.1106 5.04153 15.0632 5.42377 14.9739L5.38833 14.9809C7.9248 14.5164 10.0018 12.8817 11.0675 10.6686L11.0878 10.6218L11.0992 10.5971Z" fill="black"/>
<path d="M14.6685 8.09989C13.1477 6.36587 10.9283 5.27737 8.45385 5.27737C8.37854 5.27737 8.30259 5.27863 8.22792 5.28053H8.23931H7.89883C7.71974 4.9217 7.35458 4.67932 6.9331 4.67932C6.92045 4.67932 6.90842 4.67932 6.89576 4.67995H6.89766H6.87298C6.26165 4.68881 5.76929 5.18624 5.76929 5.79884C5.76929 5.81719 5.76992 5.83491 5.77055 5.85263V5.8501C5.79903 6.45953 6.29709 6.94367 6.90969 6.95H6.95968C7.41154 6.93228 7.79315 6.65129 7.95769 6.25765L7.96022 6.25006H8.33044C9.94674 6.25196 11.4466 6.74811 12.687 7.59677L12.6604 7.57968C13.6293 8.19988 14.3773 9.09093 14.807 10.1459L14.8203 10.1826C14.9849 10.5256 15.0804 10.9281 15.0804 11.3527C15.0804 11.8021 14.9735 12.2261 14.783 12.6007L14.79 12.5849C14.2982 13.5886 13.2844 14.267 12.1124 14.267C12.0693 14.267 12.0269 14.2664 11.9845 14.2645H11.9909C11.2713 14.2493 10.5923 14.0911 9.97649 13.8171L10.0094 13.8304C9.76955 14.0303 9.36958 14.3594 9.0791 14.56C9.84739 14.9372 10.7486 15.1669 11.701 15.1891H11.7086C11.7459 15.1904 11.7896 15.191 11.8333 15.191C13.4483 15.191 14.8627 14.3335 15.6468 13.0494L15.6582 13.0298C15.8747 12.5166 16 11.9204 16 11.2945C16 10.0415 15.4962 8.90614 14.6805 8.08027L14.6811 8.0809L14.6716 8.10115L14.6685 8.09989Z" fill="black"/>
<path d="M4.33012 10.9585C4.35796 11.5685 4.85729 12.0539 5.47115 12.0584H5.51165C6.12426 12.0375 6.61345 11.535 6.61345 10.9192C6.61345 10.2927 6.1078 9.78389 5.48191 9.77946H5.43951C5.43318 9.77883 5.42559 9.77883 5.41862 9.77883C5.37243 9.77883 5.32813 9.78579 5.28636 9.79972L5.28952 9.79908C4.61237 8.69729 4.21178 7.3626 4.21178 5.93426C4.21178 5.7039 4.2219 5.47607 4.24279 5.25141L4.24089 5.28052C4.29848 4.0743 4.74147 2.98137 5.44774 2.11183L5.44014 2.12195C6.0673 1.44417 6.95076 1.01256 7.93611 0.980921H7.94181C10.1011 0.940418 11.0016 3.63131 11.0713 4.70083L12.0724 5.00016C11.8395 1.72136 9.80049 0 7.85068 0C5.86858 0.103155 4.2238 1.43657 3.65993 3.24716L3.65107 3.28007C3.37388 4.07873 3.21313 4.9989 3.21313 5.9564C3.21313 7.59423 3.68208 9.12256 4.49213 10.4142L4.47188 10.3794C4.38138 10.5161 4.32759 10.6838 4.32759 10.8642C4.32759 10.8977 4.32949 10.9306 4.33328 10.9629L4.33265 10.9591L4.33012 10.9585Z" fill="black"/>
</svg>
