<svg width="16" height="13" viewBox="0 0 16 13" fill="none" xmlns="http://www.w3.org/2000/svg">
<path d="M12.3419 2.54697L12.4919 2.31899L12.7539 2.47867L12.8699 2.56203C13.15 2.77897 13.739 3.33335 13.866 4.25332C14.089 4.21314 14.314 4.19306 14.539 4.19306C15.073 4.19306 15.432 4.31759 15.636 4.42104L15.741 4.47829L15.809 4.52348L16 4.68015L15.934 4.88102C15.8314 5.15639 15.6711 5.40641 15.464 5.61418C15.174 5.91447 14.664 6.269 13.855 6.3152L13.677 6.32022H13.529C13.159 7.30144 12.6619 8.40721 11.8269 9.39948C11.3315 9.98912 10.7438 10.4939 10.0869 10.8939C9.29938 11.3631 8.43699 11.6921 7.53785 11.8661C6.89384 11.9916 6.23983 12.0539 5.58482 12.0519C4.13479 12.0519 2.85477 11.7627 2.06775 11.2565C1.36474 10.8055 0.824732 10.0694 0.461725 9.07006C0.144046 8.15693 -0.0119798 7.195 0.000716971 6.22782C-0.000928402 6.10382 0.0417583 5.98333 0.121026 5.88824C0.200294 5.79315 0.310887 5.72977 0.432725 5.70959L0.500726 5.70457H11.0409L11.1329 5.69754L11.2819 5.68147C11.5379 5.64732 11.9279 5.57099 12.2019 5.4103C11.8739 4.86495 11.7809 4.2272 11.9339 3.54828C11.998 3.26508 12.0989 2.99157 12.2339 2.73478L12.3419 2.54697ZM2.88977 3.80037L2.92977 3.8074C2.94804 3.81426 2.96449 3.82526 2.97784 3.83954C2.9912 3.85383 3.0011 3.87101 3.00677 3.88975L3.01277 3.92992V5.25061L3.00677 5.29179C3.00099 5.31064 2.99094 5.32788 2.97741 5.34217C2.96387 5.35646 2.94723 5.36741 2.92877 5.37414L2.88977 5.38017H1.47774C1.45143 5.37981 1.4259 5.37106 1.40487 5.35517C1.38383 5.33928 1.36838 5.31708 1.36074 5.29179L1.35374 5.25162V3.92892L1.36074 3.88875C1.36638 3.86971 1.37637 3.85226 1.38992 3.83779C1.40346 3.82332 1.42018 3.81222 1.43874 3.80539L1.47774 3.79936L2.88977 3.80037ZM4.8368 3.80037L4.8758 3.8074C4.89426 3.81413 4.91091 3.82508 4.92444 3.83937C4.93798 3.85365 4.94803 3.8709 4.9538 3.88975L4.9598 3.92992V5.25061L4.9528 5.29179C4.94703 5.31064 4.93698 5.32788 4.92344 5.34217C4.90991 5.35646 4.89326 5.36741 4.8748 5.37414L4.8358 5.38017H3.42378C3.3975 5.37966 3.37205 5.37085 3.35105 5.35498C3.33004 5.33912 3.31455 5.317 3.30678 5.29179L3.29978 5.25262V3.92992C3.29956 3.90305 3.30761 3.87677 3.32282 3.85466C3.33804 3.83255 3.35967 3.81569 3.38478 3.80639L3.42378 3.79936L4.8368 3.80037ZM6.81284 3.80037L6.85184 3.8074C6.87011 3.81426 6.88656 3.82526 6.89991 3.83954C6.91327 3.85383 6.92316 3.87101 6.92884 3.88975L6.93584 3.92992V5.25061L6.92884 5.29179C6.92306 5.31064 6.91301 5.32788 6.89948 5.34217C6.88594 5.35646 6.86929 5.36741 6.85084 5.37414L6.81184 5.38017H5.39981C5.3735 5.37981 5.34797 5.37106 5.32694 5.35517C5.3059 5.33928 5.29045 5.31708 5.28281 5.29179L5.27681 5.25162V3.92892L5.28281 3.88875C5.28845 3.86971 5.29844 3.85226 5.31198 3.83779C5.32553 3.82332 5.34225 3.81222 5.36081 3.80539L5.39981 3.79936L6.81284 3.80037ZM8.76487 3.80037L8.80387 3.8074C8.82233 3.81413 8.83898 3.82508 8.85251 3.83937C8.86605 3.85365 8.8761 3.8709 8.88187 3.88975L8.88887 3.92992V5.25061C8.88909 5.27748 8.88104 5.30377 8.86583 5.32588C8.85061 5.34799 8.82898 5.36484 8.80387 5.37414L8.76387 5.38017H7.35285C7.32653 5.37981 7.30101 5.37106 7.27997 5.35517C7.25894 5.33928 7.24348 5.31708 7.23585 5.29179L7.22985 5.25162V3.92892L7.23585 3.88875C7.24149 3.86971 7.25148 3.85226 7.26502 3.83779C7.27856 3.82332 7.29528 3.81222 7.31385 3.80539L7.35385 3.79936H8.76587L8.76487 3.80037ZM10.7349 3.80037L10.7739 3.8074C10.7924 3.81413 10.809 3.82508 10.8225 3.83937C10.8361 3.85365 10.8461 3.8709 10.8519 3.88975L10.8579 3.92992V5.25061C10.8581 5.27748 10.8501 5.30377 10.8349 5.32588C10.8196 5.34799 10.798 5.36484 10.7729 5.37414L10.7339 5.38017H9.32188C9.29556 5.37981 9.27004 5.37106 9.24901 5.35517C9.22797 5.33928 9.21252 5.31708 9.20488 5.29179L9.19888 5.25162V3.92892L9.20488 3.88875C9.21052 3.86971 9.22051 3.85226 9.23405 3.83779C9.2476 3.82332 9.26432 3.81222 9.28288 3.80539L9.32288 3.79936H10.7339L10.7349 3.80037ZM4.8348 1.90018L4.8748 1.90721C4.89297 1.91398 4.90935 1.92482 4.92269 1.93892C4.93604 1.95302 4.946 1.97 4.9518 1.98856L4.9588 2.02974V3.35043C4.95902 3.3773 4.95097 3.40359 4.93576 3.42569C4.92054 3.4478 4.89891 3.46466 4.8738 3.47396L4.8348 3.48099H3.42378C3.39725 3.48035 3.37161 3.47124 3.35057 3.45499C3.32954 3.43874 3.3142 3.41619 3.30678 3.3906L3.29978 3.35043V2.02974C3.29977 2.00304 3.30791 1.97698 3.32311 1.95507C3.33831 1.93316 3.35983 1.91646 3.38478 1.90721L3.42378 1.90018H4.8348ZM6.81084 1.90018L6.85084 1.90721C6.869 1.91398 6.88538 1.92482 6.89873 1.93892C6.91207 1.95302 6.92203 1.97 6.92784 1.98856L6.93484 2.02974V3.35043C6.93505 3.3773 6.927 3.40359 6.91179 3.42569C6.89658 3.4478 6.87494 3.46466 6.84984 3.47396L6.81084 3.48099H5.39981C5.37328 3.48035 5.34764 3.47124 5.32661 3.45499C5.30557 3.43874 5.29023 3.41619 5.28281 3.3906L5.27681 3.35043V2.02974L5.28281 1.98957C5.28859 1.97072 5.29864 1.95347 5.31217 1.93918C5.32571 1.92489 5.34236 1.91395 5.36081 1.90721L5.39981 1.90018H6.81084ZM8.76387 1.90018C8.81787 1.90018 8.86387 1.93734 8.88087 1.98856L8.88787 2.02974V3.35043C8.88809 3.3773 8.88004 3.40359 8.86483 3.42569C8.84961 3.4478 8.82798 3.46466 8.80287 3.47396L8.76287 3.48099H7.35285C7.32632 3.48035 7.30068 3.47124 7.27964 3.45499C7.25861 3.43874 7.24327 3.41619 7.23585 3.3906L7.22985 3.35043V2.02974L7.23585 1.98957C7.24162 1.97072 7.25167 1.95347 7.26521 1.93918C7.27874 1.92489 7.29539 1.91395 7.31385 1.90721L7.35385 1.90018H8.76587H8.76387ZM8.76387 0C8.81787 0 8.86387 0.0371601 8.88087 0.0883807L8.88787 0.128554V1.45025C8.88809 1.47712 8.88004 1.5034 8.86483 1.52551C8.84961 1.54762 8.82798 1.56448 8.80287 1.57378L8.76287 1.5798H7.35285C7.32653 1.57945 7.30101 1.57069 7.27997 1.55481C7.25894 1.53892 7.24348 1.51672 7.23585 1.49142L7.22985 1.45125V0.128554L7.23585 0.0883807C7.24162 0.0695316 7.25167 0.0522845 7.26521 0.0379949C7.27874 0.0237053 7.29539 0.0127625 7.31385 0.00602599L7.35285 0H8.76487H8.76387Z" fill="black"/>
</svg>
