<svg width="33" height="33" viewBox="0 0 33 33" fill="none" xmlns="http://www.w3.org/2000/svg">
<path d="M16.5 33C25.6127 33 33 25.6127 33 16.5C33 7.3873 25.6127 0 16.5 0C7.3873 0 0 7.3873 0 16.5C0 25.6127 7.3873 33 16.5 33Z" fill="#1794D4"/>
<path d="M18.8571 5.89282H16.5V8.24997H18.8571V5.89282Z" fill="white"/>
<path d="M9.42847 9.42859H11.7856V11.7857H9.42847V9.42859Z" fill="white"/>
<path d="M4.71618 17.6095C4.91759 21.0289 6.95396 25.9286 14.1429 25.9286C22.1572 25.9286 25.7322 20.0357 26.5179 17.0893C27.5 17.0893 29.7001 16.5 30.6429 14.1429C30.0536 13.5536 27.6965 13.5536 26.5179 14.1429C26.5179 13.2 25.9286 11.1965 24.7501 10.6072C23.9643 11.3929 22.7465 13.4357 24.1608 15.3215C23.5715 16.5 22.0001 16.5 21.2144 16.5H5.82563C5.2016 16.5 4.67948 16.9865 4.71618 17.6095Z" fill="white"/>
<path d="M8.24997 12.9642H5.89282V15.3214H8.24997V12.9642Z" fill="white"/>
<path d="M9.42847 12.9642H11.7856V15.3214H9.42847V12.9642Z" fill="white"/>
<path d="M15.3215 12.9642H12.9644V15.3214H15.3215V12.9642Z" fill="white"/>
<path d="M16.5 12.9642H18.8571V15.3214H16.5V12.9642Z" fill="white"/>
<path d="M22.3928 12.9642H20.0356V15.3214H22.3928V12.9642Z" fill="white"/>
<path d="M15.3215 9.42859H12.9644V11.7857H15.3215V9.42859Z" fill="white"/>
<path d="M16.5 9.42859H18.8571V11.7857H16.5V9.42859Z" fill="white"/>
</svg>
