<svg width="16" height="16" viewBox="0 0 16 16" fill="none" xmlns="http://www.w3.org/2000/svg">
<path d="M8 16C12.4183 16 16 12.4183 16 8C16 3.58172 12.4183 0 8 0C3.58172 0 0 3.58172 0 8C0 12.4183 3.58172 16 8 16Z" fill="black"/>
<path d="M11.3624 5.02002C10.4219 5.02002 9.49791 5.60758 8.78503 6.22535C8.96342 6.42015 9.1335 6.62241 9.2948 6.83158C9.37125 6.93246 9.4828 7.06891 9.62058 7.22358C10.1699 6.7418 10.8157 6.31513 11.3624 6.31513C12.2912 6.31513 13.0468 7.07069 13.0468 7.99958C13.0468 8.92846 12.2912 9.68402 11.3624 9.68402C10.3237 9.68402 8.92503 8.14802 8.51703 7.60935C8.31703 7.34446 6.50769 5.02002 4.63747 5.02002C2.99436 5.02002 1.65747 6.35691 1.65747 8.00002C1.65747 9.64313 2.99436 10.9796 4.63747 10.9796C5.5508 10.9796 6.44769 10.4249 7.15169 9.82669C6.95571 9.61569 6.76959 9.39576 6.59391 9.16758C6.50523 9.05238 6.41273 8.94017 6.31658 8.83113C5.78147 9.2898 5.16369 9.68402 4.63747 9.68402C3.70858 9.68402 2.95303 8.92846 2.95303 7.99958C2.95303 7.07069 3.70858 6.31513 4.63747 6.31513C5.67658 6.31513 7.0748 7.85113 7.4828 8.3898C7.6828 8.65469 9.49214 10.9791 11.3624 10.9791C12.1523 10.9783 12.9097 10.6641 13.4683 10.1055C14.0269 9.54693 14.3411 8.78955 14.3419 7.99958C14.3412 7.20956 14.0271 6.45211 13.4684 5.89349C12.9098 5.33487 12.1524 5.02073 11.3624 5.02002Z" fill="white"/>
</svg>
