<svg width="33" height="33" viewBox="0 0 33 33" fill="none" xmlns="http://www.w3.org/2000/svg">
<path d="M16.5 33C25.6127 33 33 25.6127 33 16.5C33 7.3873 25.6127 0 16.5 0C7.3873 0 0 7.3873 0 16.5C0 25.6127 7.3873 33 16.5 33Z" fill="#3B94D9"/>
<path d="M23.4345 10.3538C21.4949 10.3538 19.5891 11.5656 18.1188 12.8398C18.4867 13.2416 18.8375 13.6587 19.1702 14.0901C19.3279 14.2982 19.558 14.5796 19.8421 14.8986C20.9751 13.905 22.307 13.025 23.4345 13.025C25.3504 13.025 26.9087 14.5833 26.9087 16.4991C26.9087 18.415 25.3504 19.9733 23.4345 19.9733C21.2923 19.9733 18.4075 16.8053 17.566 15.6943C17.1535 15.148 13.4218 10.3538 9.56446 10.3538C6.17555 10.3538 3.41821 13.1111 3.41821 16.5C3.41821 19.889 6.17555 22.6454 9.56446 22.6454C11.4482 22.6454 13.298 21.5014 14.75 20.2675C14.3458 19.8324 13.962 19.3787 13.5996 18.9081C13.4167 18.6705 13.2259 18.4391 13.0276 18.2142C11.924 19.1602 10.6498 19.9733 9.56446 19.9733C7.64863 19.9733 6.0903 18.415 6.0903 16.4991C6.0903 14.5833 7.64863 13.025 9.56446 13.025C11.7076 13.025 14.5915 16.193 15.433 17.304C15.8455 17.8503 19.5772 22.6445 23.4345 22.6445C25.0639 22.6428 26.626 21.9948 27.7781 20.8427C28.9302 19.6905 29.5782 18.1284 29.5799 16.4991C29.5784 14.8697 28.9305 13.3075 27.7783 12.1553C26.6262 11.0032 25.0639 10.3552 23.4345 10.3538Z" fill="white"/>
</svg>
