<svg width="23" height="35" viewBox="0 0 23 35" fill="none" xmlns="http://www.w3.org/2000/svg">
<path fill-rule="evenodd" clip-rule="evenodd" d="M11.5 17.25C11.5 14.0744 14.0744 11.5 17.25 11.5C20.4256 11.5 23 14.0744 23 17.25C23 20.4256 20.4256 23 17.25 23C14.0744 23 11.5 20.4256 11.5 17.25Z" fill="#1ABCFE"/>
<path fill-rule="evenodd" clip-rule="evenodd" d="M0 28.75C0 25.5744 2.57436 23 5.75 23H11.5V28.75C11.5 31.9256 8.92558 34.5 5.75 34.5C2.57436 34.5 0 31.9256 0 28.75Z" fill="#0ACF83"/>
<path fill-rule="evenodd" clip-rule="evenodd" d="M11.5 0V11.5H17.25C20.4256 11.5 23 8.92558 23 5.75C23 2.57436 20.4256 0 17.25 0H11.5Z" fill="#FF7262"/>
<path fill-rule="evenodd" clip-rule="evenodd" d="M0 5.75C0 8.92558 2.57436 11.5 5.75 11.5H11.5V0H5.75C2.57436 0 0 2.57436 0 5.75Z" fill="#F24E1E"/>
<path fill-rule="evenodd" clip-rule="evenodd" d="M0 17.25C0 20.4256 2.57436 23 5.75 23H11.5V11.5H5.75C2.57436 11.5 0 14.0744 0 17.25Z" fill="#A259FF"/>
</svg>
