<svg width="11" height="16" viewBox="0 0 11 16" fill="none" xmlns="http://www.w3.org/2000/svg">
<path d="M10.1666 7.99998C10.1666 9.1966 9.19654 10.1666 7.99992 10.1666C6.8033 10.1666 5.83325 9.1966 5.83325 7.99998C5.83325 6.80336 6.8033 5.83331 7.99992 5.83331C9.19654 5.83331 10.1666 6.80336 10.1666 7.99998Z" stroke="#0C0310" stroke-linecap="round"/>
<path d="M0.5 13.3334C0.5 12.1367 1.47005 11.1667 2.66667 11.1667H4.83333V13.3334C4.83333 14.53 3.86332 15.5 2.66667 15.5C1.47005 15.5 0.5 14.53 0.5 13.3334Z" stroke="#0C0310" stroke-linecap="round"/>
<path d="M0.5 7.99998C0.5 6.80333 1.47005 5.83331 2.66667 5.83331H4.83333V10.1666H2.66667C1.47005 10.1666 0.5 9.19663 0.5 7.99998Z" stroke="#0C0310" stroke-linecap="round"/>
<path d="M0.5 2.66667C0.5 1.47005 1.47005 0.5 2.66667 0.5H4.83333V4.83333H2.66667C1.47005 4.83333 0.5 3.86328 0.5 2.66667Z" stroke="#0C0310" stroke-linecap="round"/>
<path d="M5.83325 0.5H7.99992C9.19657 0.5 10.1666 1.47005 10.1666 2.66667C10.1666 3.86329 9.19657 4.83333 7.99992 4.83333H5.83325V0.5Z" stroke="#0C0310" stroke-linecap="round"/>
</svg>
