<svg width="33" height="33" viewBox="0 0 33 33" fill="none" xmlns="http://www.w3.org/2000/svg">
<g clip-path="url(#clip0_19_715)">
<path d="M16.4721 24.5643C23.7728 34.5169 30.9177 21.7864 30.9072 14.1308C30.8948 5.07927 21.7207 0.0204468 16.4661 0.0204468C8.03203 0.0204468 0 6.99089 0 16.5278C0 27.1283 9.20708 33 16.4661 33C14.8234 32.7635 9.34919 31.5905 9.27562 18.9819C9.22614 10.4541 12.0574 7.04709 16.4542 8.5458C16.5527 8.58232 21.3039 10.4566 21.3039 16.5793C21.3039 22.6761 16.4721 24.5643 16.4721 24.5643Z" fill="url(#paint0_linear_19_715)"/>
<path d="M16.4636 8.53892C11.6394 6.87615 5.72974 10.8522 5.72974 18.8161C5.72974 31.8198 15.3659 33 16.534 33C24.968 33 33.0001 26.0296 33.0001 16.4926C33.0001 5.89217 23.793 0.0204455 16.534 0.0204455C18.5445 -0.257992 27.3705 2.19636 27.3705 14.2593C27.3705 22.1259 20.7802 26.4084 16.4938 24.5787C16.3954 24.5422 11.6441 22.6679 11.6441 16.5451C11.6441 10.4484 16.4636 8.53892 16.4636 8.53892Z" fill="url(#paint1_linear_19_715)"/>
</g>
<defs>
<linearGradient id="paint0_linear_19_715" x1="488.066" y1="486.042" x2="2953.14" y2="2651.05" gradientUnits="userSpaceOnUse">
<stop/>
<stop offset="1" stop-color="white"/>
</linearGradient>
<linearGradient id="paint1_linear_19_715" x1="2245.6" y1="2812.83" x2="-422.489" y2="990.818" gradientUnits="userSpaceOnUse">
<stop/>
<stop offset="1" stop-color="white"/>
</linearGradient>
<clipPath id="clip0_19_715">
<rect width="33" height="33" fill="white"/>
</clipPath>
</defs>
</svg>
