<svg width="16" height="16" viewBox="0 0 16 16" fill="none" xmlns="http://www.w3.org/2000/svg">
<path d="M6.06732 15.7119C5.94752 15.6602 5.84911 15.6095 5.7539 15.553L5.76674 15.5599C5.24419 15.2756 4.79599 14.9353 4.40555 14.5384L4.40448 14.5373C3.70757 13.7942 3.18663 12.8783 2.91279 11.8621L2.90262 11.8178C2.7288 11.1953 2.6106 10.472 2.57262 9.72728L2.57155 9.70327C2.56086 9.54911 2.55497 9.36881 2.55497 9.18744C2.55497 8.88018 2.57209 8.57718 2.60578 8.27899L2.60257 8.3158C2.68975 7.42762 2.95771 6.61732 3.36955 5.89985L3.35404 5.92919C3.66532 5.38828 4.06378 4.93379 4.53552 4.56838L4.54568 4.56038C4.8591 4.31873 5.22012 4.11602 5.60842 3.96986L5.63731 3.96026C6.00047 3.82477 6.41979 3.74688 6.8573 3.74688C7.26271 3.74688 7.65262 3.8141 8.01631 3.93785L7.99118 3.93039C8.01043 3.93039 8.01043 3.93039 8.02113 3.95012C8.03129 3.96026 8.05108 3.96026 8.06124 3.96986C8.09119 3.98053 8.13077 3.99973 8.17142 4.01894C8.35594 4.11496 8.50998 4.20778 8.6576 4.30913L8.64155 4.29899C9.24379 4.72308 9.72088 5.28532 10.0322 5.94146L10.0429 5.96706C10.3055 6.54318 10.4606 7.21584 10.4649 7.92425V7.92585C10.4659 7.96053 10.4665 8.00107 10.4665 8.04214C10.4665 8.76015 10.3071 9.44136 10.0215 10.0521L10.0338 10.0228C9.64546 10.8256 9.03894 11.4716 8.29176 11.8994L8.2709 11.9107C8.3308 11.9309 8.39124 11.9405 8.45222 11.9608C8.58967 11.9907 8.74852 12.0088 8.91112 12.0099H8.91218C9.9407 11.9997 10.8697 11.5826 11.5458 10.912C11.6752 10.7926 11.7934 10.6651 11.9015 10.529L11.9068 10.5221C12.0464 10.3594 12.1817 10.1807 12.3047 9.99347L12.317 9.97373C12.4582 9.75609 12.5952 9.50377 12.7128 9.24078L12.7273 9.20451C12.8679 8.88711 12.9856 8.51584 13.0615 8.12963L13.0674 8.09549C13.146 7.67567 13.1915 7.19291 13.1915 6.69947C13.1915 6.48076 13.1824 6.26419 13.1653 6.05028L13.1669 6.07855C13.1059 4.6516 12.6551 3.3404 11.9186 2.23511L11.9357 2.26285C11.8089 2.08148 11.687 1.92519 11.5581 1.77529L11.565 1.78329C11.3447 1.53524 11.1126 1.3096 10.8649 1.10209L10.8548 1.09409C10.5879 0.873775 10.29 0.671601 9.97333 0.498766L9.94391 0.48383C9.62567 0.3334 9.24967 0.197373 8.85923 0.0954858L8.81324 0.0853505L8.61267 0.0453424C8.47307 0.0256051 8.33187 0.0160033 8.18907 0.00533446C8.11419 0.00160038 8.02701 0 7.93876 0C7.78793 0 7.63871 0.00586784 7.49109 0.0176035L7.51088 0.0165367C6.99208 0.0517437 6.51018 0.13176 6.04486 0.253384L6.09888 0.241115C3.79315 0.856705 1.92492 2.38394 0.870199 4.40141L0.848805 4.44676C0.313956 5.48323 0 6.70854 0 8.00747C0 8.37554 0.0251379 8.73722 0.0738091 9.09195L0.0689955 9.05088C0.155106 9.78649 0.338559 10.457 0.607053 11.0828L0.588868 11.0353C0.763229 11.4626 0.948287 11.8237 1.15955 12.1672L1.1403 12.1336C1.89229 13.3211 2.90958 14.2781 4.11245 14.939L4.15417 14.9603C4.56333 15.1924 5.03988 15.4052 5.53729 15.5727L5.59612 15.5898C5.74695 15.6389 5.89671 15.6895 6.05663 15.7295L6.06732 15.7119ZM8.02861 15.9776C8.36504 15.9771 8.69611 15.9541 9.02023 15.9109L8.98172 15.9152C9.7642 15.8117 10.4734 15.6101 11.135 15.3199L11.0842 15.3396C12.0667 14.9129 12.9064 14.3426 13.6205 13.6438L13.6194 13.6449C14.2783 13.0005 14.8249 12.2446 15.2293 11.4081L15.2501 11.3601C15.5759 10.6869 15.8155 9.90545 15.9273 9.08395L15.9321 9.04341C15.9754 8.72495 16 8.35687 16 7.98293C16 7.53377 15.9642 7.09315 15.8957 6.66373L15.9021 6.71121C15.7903 6.014 15.6058 5.38934 15.3523 4.80096L15.3721 4.8527C15.1913 4.43502 15.0009 4.08082 14.7838 3.74528L14.8014 3.77462C14.0002 2.55251 12.9139 1.57792 11.633 0.929786L11.5864 0.908448C11.1773 0.694006 10.6959 0.497166 10.1953 0.344602L10.1343 0.328599H10.1311C10.2108 0.370741 10.2916 0.416617 10.3616 0.462493C10.4419 0.511569 10.5215 0.559579 10.5964 0.612389C10.9885 0.876975 11.3302 1.1693 11.6351 1.49523L11.6383 1.49897C12.317 2.24045 12.8294 3.14516 13.1097 4.14643L13.1209 4.19231C13.2947 4.78442 13.4129 5.47203 13.4509 6.18044L13.452 6.20337C13.4648 6.37408 13.4718 6.57358 13.4718 6.77416C13.4718 7.09635 13.4531 7.41482 13.4167 7.72741L13.4204 7.68954C13.3183 8.58732 13.0262 9.40028 12.585 10.1119L12.5994 10.0868C12.2593 10.6347 11.8357 11.0956 11.3404 11.4668L11.3276 11.4759C10.7061 11.9773 9.90593 12.2803 9.03467 12.2803C8.79719 12.2803 8.56453 12.2579 8.3399 12.2147L8.3629 12.2184C8.17142 12.1731 8.00508 12.1139 7.84677 12.0397L7.86281 12.0467C7.66331 11.9549 7.4927 11.8552 7.33278 11.7405L7.34187 11.7469C7.02524 11.534 6.75193 11.2908 6.51499 11.0155L6.51071 11.0102C6.22885 10.6768 5.99245 10.2922 5.82022 9.87451L5.80953 9.8457C5.60949 9.34427 5.48915 8.76389 5.47953 8.15683V8.15257C5.47739 8.09709 5.47578 8.03147 5.47578 7.96586C5.47578 7.13743 5.68865 6.35914 6.06251 5.68167L6.05021 5.70621C6.34063 5.20104 6.71235 4.77642 7.152 4.43502L7.16162 4.42755C7.29801 4.3214 7.45151 4.21578 7.61143 4.11976L7.63229 4.10802L7.64299 4.10322C7.41354 4.04881 7.15039 4.01734 6.88029 4.01734C6.80969 4.01734 6.74016 4.01947 6.67063 4.02374L6.68026 4.0232C6.38021 4.04348 6.10048 4.10055 5.83627 4.19017L5.8598 4.18324C5.59773 4.27019 5.37256 4.37154 5.16022 4.49317L5.17894 4.48356C4.99174 4.59132 4.83182 4.70014 4.68046 4.81963L4.68902 4.81323C4.54782 4.93325 4.40822 5.05328 4.27772 5.18344C3.57065 5.94146 3.08501 6.91392 2.92937 7.99253L2.92616 8.02081C2.87053 8.40168 2.83898 8.84124 2.83898 9.28826C2.83898 9.53417 2.8486 9.77796 2.86732 10.0191L2.86519 9.98706C2.9283 10.9782 3.15454 11.9 3.5177 12.7498L3.49684 12.6948C3.73806 13.2496 4.04025 13.7275 4.40448 14.1511L4.39806 14.1436C4.95858 14.787 5.65977 15.2932 6.45509 15.617L6.49146 15.6303C6.90276 15.8032 7.38038 15.9301 7.87886 15.9877L7.90346 15.9899C7.93929 15.9963 7.98101 16 8.02327 16C8.03022 16 8.03717 16 8.04413 15.9995H8.04305L8.02861 15.9776Z" fill="black"/>
</svg>
