<svg width="39" height="33" viewBox="0 0 39 33" fill="none" xmlns="http://www.w3.org/2000/svg">
<path d="M2 5.35917H1V6.35917V8.70642V9.68482V9.70642V10.6848V13.0321V14.0321H2H15.7817C16.0505 14.0321 16.3708 14.0334 16.7223 14.0464C16.5968 14.0447 16.4731 14.044 16.3517 14.044H2H1V15.044V17.3912V18.3912H2H15.7817C16.1779 18.3912 16.555 18.3931 16.9132 18.3972C16.555 18.4013 16.1779 18.4032 15.7817 18.4032H2H1V19.4032V21.7504V22.7504H2H16.3517C16.4731 22.7504 16.5967 22.7497 16.7223 22.748C16.3708 22.761 16.0505 22.7623 15.7817 22.7623H2H1V23.7623V26.1096V27.1096H2H16.3182C18.0604 27.1096 19.539 26.8183 20.7 26.1693C20.8336 26.0947 20.9622 26.0157 21.0857 25.9325V26.3443V26.5369V27.4509V28.2556V28.4011L21.1272 28.5406C21.3857 29.4101 21.9319 30.1007 22.7454 30.5513C23.5287 30.9852 24.5032 31.167 25.6066 31.167H36.1357H37.1357V30.167V28.7251V27.7251H37.1022V27.5179V26.0761V25.0761H36.1022H25.9084C24.8885 25.0761 24.0952 25.059 23.5039 25.0084C23.209 24.9832 22.9857 24.9513 22.8218 24.9154C22.6708 24.8823 22.6097 24.854 22.6008 24.8499C22.5995 24.8493 22.5994 24.8492 22.6002 24.8497L22.354 24.702C22.6674 24.2603 22.9079 23.7636 23.0754 23.217L23.1193 23.0738V22.924V21.6163V20.0353V19.8391V19.669V18.7996V18.6934V18.101V17.9948V17.1254V16.9553V16.7591V15.1781V13.8704V13.7206L23.0754 13.5774C22.6831 12.2974 21.8903 11.2904 20.7 10.6251C19.539 9.97611 18.0604 9.68482 16.3182 9.68482H10.9806V8.70642V6.35917V5.35917H9.98064H2ZM2 1H1V2V4.34725V5.34725H2H9.98064H10.9806V4.34725V2V1H9.98064H2Z" fill="#17A1E6" stroke="#434343" stroke-width="2"/>
</svg>
