<svg width="16" height="14" viewBox="0 0 16 14" fill="none" xmlns="http://www.w3.org/2000/svg">
<path d="M0 2.04322H3.74067V3.14342H0V2.04322ZM0 0H3.74067V1.1002H0V0ZM6.7112 4.07073H0V5.17092H6.45972C7.16699 5.17092 8.81729 5.18664 9.43025 6.17682V5.56385C9.13163 4.58939 8.25147 4.07073 6.7112 4.07073ZM6.72692 6.11395H0V7.21415H6.45972C8.03143 7.21415 9.02161 7.27701 9.43025 7.49705V7.00982C9.11591 6.23969 7.79568 6.11395 6.72692 6.11395ZM6.7112 11.3006H0V10.2004H6.45972C7.16699 10.2004 8.81729 10.1847 9.43025 9.1945V9.80747C9.13163 10.7819 8.25147 11.3006 6.7112 11.3006ZM6.72692 9.25737H0V8.15717H6.45972C8.03143 8.15717 9.02161 8.0943 9.43025 7.87426V8.36149C9.11591 9.13163 7.79568 9.25737 6.72692 9.25737ZM11.0648 13.2024H16V12.5265H11.2063C10.7819 12.5265 9.77603 12.5108 9.41454 11.9293V12.3065C9.58743 12.888 10.1218 13.2024 11.0648 13.2024ZM11.0491 11.9607H15.9843V11.2849H11.2063C10.2475 11.2849 9.65029 11.2534 9.41454 11.112V11.4106C9.60314 11.8821 10.4047 11.9607 11.0491 11.9607Z" fill="black"/>
</svg>
