<svg width="28" height="34" viewBox="0 0 28 34" fill="none" xmlns="http://www.w3.org/2000/svg">
<path d="M26.8989 0.797673L26.8998 0.798372C27.1594 0.997173 27.3346 1.26367 27.4255 1.57721L27.4255 1.57741C27.5133 1.88086 27.5191 2.20519 27.4658 2.53769L27.4657 2.53809C27.4099 2.88435 27.2832 3.21977 27.0952 3.5431L27.0602 3.60328L27.0101 3.65162C26.9109 3.74738 26.77 3.81785 26.6024 3.81785C26.4507 3.81785 26.3318 3.75999 26.2572 3.71186L26.256 3.71108C26.1267 3.62703 26.0081 3.50008 25.9477 3.32281L25.9067 3.20243L25.9282 3.07707C25.9285 3.07523 25.9287 3.07359 25.9289 3.07214C25.9235 3.06604 25.9133 3.05619 25.8957 3.0432C25.8346 2.99813 25.6716 2.93231 25.3185 2.93231C24.7102 2.93231 24.07 3.14997 23.3903 3.63397C22.6907 4.13215 22.0015 4.79715 21.3252 5.63657C20.6477 6.47793 20.0097 7.45036 19.4128 8.55557L19.4128 8.55568C18.8145 9.66293 18.2939 10.8078 17.8546 11.9827L17.8546 11.9827C17.4143 13.1599 17.0668 14.3266 16.8126 15.4826L16.8126 15.4827C16.5587 16.6364 16.4347 17.6757 16.4347 18.6047C16.4347 18.7119 16.4426 18.7924 16.454 18.8506C16.4559 18.8607 16.4579 18.8697 16.4599 18.8778C16.5225 18.8634 16.6019 18.8265 16.7011 18.7429L16.7014 18.7426C16.869 18.6015 17.0822 18.3722 17.3407 18.038L17.394 17.9691L17.4674 17.9223C17.5599 17.8633 17.6945 17.809 17.8573 17.8234C18.0222 17.8379 18.1477 17.9168 18.2311 17.9974L18.2339 18C18.4258 18.1882 18.463 18.4366 18.4091 18.6491L18.387 18.736L18.3362 18.8098C17.9467 19.375 17.4861 19.8514 16.9522 20.2343C16.4239 20.6138 15.8825 20.8492 15.3429 20.8492C14.9187 20.8492 14.4875 20.7282 14.2218 20.3504C14.0142 20.0556 13.9289 19.705 13.9289 19.3336C13.9289 18.4512 14.1211 17.3799 14.487 16.133C14.8524 14.8851 15.3394 13.5714 15.9479 12.1916M26.8989 0.797673L16.4054 12.3934M26.8989 0.797673C26.6214 0.586269 26.2878 0.5 25.937 0.5M26.8989 0.797673L25.937 0.5M15.9479 12.1916L16.4054 12.3934M15.9479 12.1916C15.9478 12.1917 15.9478 12.1917 15.9478 12.1918L16.4054 12.3934M15.9479 12.1916C16.5562 10.811 17.2593 9.43583 18.0571 8.06634M16.4054 12.3934C16.813 11.4681 17.2641 10.5447 17.7586 9.62337C17.9689 9.1705 18.1913 8.72288 18.4256 8.28096M18.0571 8.06634L18.4256 8.28096M18.0571 8.06634C18.8558 6.69489 19.6888 5.45601 20.5563 4.35057M18.0571 8.06634C18.0571 8.06633 18.0571 8.06632 18.0571 8.06631L18.4256 8.28096M18.4256 8.28096C18.4611 8.21397 18.4969 8.14712 18.5329 8.0804C18.5329 8.08036 18.533 8.08033 18.533 8.08029L18.6055 8.1195C18.6055 8.11953 18.6055 8.11955 18.6055 8.11958L20.5563 4.35057M20.5563 4.35057C21.426 3.24193 22.3097 2.33024 23.208 1.62303L20.5563 4.35057ZM17.3458 19.5073C17.3457 19.5074 17.3456 19.5075 17.3455 19.5076L17.2213 19.3601C17.0448 19.5306 16.8579 19.6866 16.6605 19.8282L17.3458 19.5073ZM17.3458 19.5073C17.5872 19.304 17.8465 19.0174 18.122 18.6623C18.1252 18.6581 18.1285 18.654 18.1317 18.6498L17.9949 18.544L17.9305 18.4942M17.3458 19.5073L17.9305 18.4942M17.9305 18.4942C17.9369 18.4395 17.9214 18.3939 17.8838 18.3571C17.8391 18.3139 17.7898 18.3097 17.7362 18.3439C17.7273 18.3554 17.7184 18.3668 17.7096 18.3781L17.5127 18.2424C17.3251 18.5146 17.1204 18.7591 16.8984 18.9767C16.8984 18.9767 16.8984 18.9768 16.8983 18.9768C16.7467 19.1254 16.5871 19.2614 16.4194 19.3853C16.4102 19.3856 16.401 19.3857 16.3918 19.3857C16.0868 19.3857 15.9347 19.1251 15.9347 18.6047L17.9305 18.4942ZM1.10103 33.2023L1.10042 33.2019C0.840533 33.003 0.665315 32.7365 0.574466 32.4229L0.574203 32.422C0.487062 32.1191 0.480705 31.7955 0.534132 31.4624L0.534271 31.4616C0.590377 31.1157 0.716815 30.7807 0.904585 30.4573L0.93937 30.3974L0.989137 30.3492C1.08767 30.2537 1.2286 30.1821 1.39761 30.1821C1.5496 30.1821 1.66855 30.2402 1.74293 30.2884M1.10103 33.2023L7.44396 29.6495C8.31148 28.5441 9.14423 27.3052 9.94309 25.9338L9.94311 25.9338C10.7407 24.5643 11.444 23.1892 12.0523 21.8085C12.6607 20.4286 13.1479 19.115 13.5132 17.867C13.8789 16.6197 14.0713 15.549 14.0713 14.6666C14.0713 14.2952 13.986 13.9445 13.7784 13.6494C13.5123 13.271 13.0806 13.151 12.6571 13.151C12.1175 13.151 11.5763 13.3863 11.0482 13.7651C10.514 14.1482 10.0534 14.6251 9.66411 15.1896L9.61296 15.2638L9.59092 15.3512C9.53767 15.5623 9.57355 15.8113 9.7662 16.0001L9.76946 16.0033C9.85258 16.0833 9.97789 16.1622 10.1428 16.1767C10.3057 16.1911 10.4403 16.1367 10.5327 16.0778L10.606 16.0311L10.6593 15.9623C10.9181 15.6278 11.1313 15.3981 11.2985 15.2573L11.2991 15.2569C11.3979 15.1735 11.4773 15.1366 11.5402 15.1224C11.5421 15.1305 11.5441 15.1395 11.5461 15.1495C11.5574 15.2077 11.5654 15.2883 11.5654 15.3957C11.5654 16.3244 11.4414 17.3639 11.1875 18.5175L11.1875 18.5175C10.9331 19.6737 10.5857 20.8403 10.1452 22.0174L10.1452 22.0175C9.70603 23.1924 9.1856 24.3373 8.58741 25.4446L8.58737 25.4447C7.9904 26.5501 7.35233 27.5223 6.67495 28.3637C5.99859 29.2034 5.30932 29.8682 4.60984 30.3658L4.60964 30.3659C3.93003 30.8499 3.28979 31.0676 2.6814 31.0676C2.32864 31.0676 2.16575 31.0021 2.10435 30.957C2.08664 30.9439 2.07647 30.934 2.07101 30.9279C2.0712 30.9264 2.07145 30.9247 2.07179 30.9227L2.09317 30.7975L2.05221 30.6773C1.99247 30.502 1.87514 30.3737 1.74293 30.2884M1.10103 33.2023C1.37862 33.414 1.71259 33.5 2.06319 33.5C2.96919 33.5 3.88254 33.0931 4.792 32.3769C5.69051 31.67 6.57422 30.7581 7.44391 29.6496L1.10103 33.2023ZM1.74293 30.2884C1.74253 30.2882 1.74212 30.2879 1.74172 30.2877L1.47147 30.7083L1.74414 30.2892C1.74374 30.289 1.74333 30.2887 1.74293 30.2884ZM25.937 0.5C25.0307 0.5 24.1175 0.906509 23.2081 1.62293L25.937 0.5ZM18.9729 8.31798C18.9343 8.38944 18.896 8.46105 18.858 8.53281C18.858 8.53282 18.858 8.53283 18.858 8.53284C18.629 8.96552 18.4116 9.40374 18.2061 9.84707C18.435 9.42096 18.6733 8.99516 18.9212 8.56966L18.9212 8.56962C18.9626 8.49848 19.0042 8.42773 19.0457 8.35737C19.0458 8.35736 19.0458 8.35735 19.0458 8.35735C19.6843 7.2772 20.3421 6.28832 21.0187 5.38979L18.9729 8.31798ZM17.7695 18.8195C17.7503 18.8179 17.7322 18.8149 17.7151 18.8111C17.7738 18.7361 17.831 18.6592 17.8868 18.5801L18.005 18.7655C17.9661 18.7903 17.883 18.8295 17.7695 18.8195ZM17.4398 18.4032L17.6481 18.456C17.5924 18.5258 17.5381 18.5916 17.4853 18.6535C17.4664 18.6235 17.4508 18.5884 17.4413 18.5488C17.4252 18.4818 17.4332 18.4291 17.4398 18.4032ZM10.6544 14.4924C10.6543 14.4925 10.6543 14.4926 10.6542 14.4926L10.7785 14.6399L10.6544 14.4924Z" fill="#B3D107" stroke="#E4E4E4"/>
</svg>
