<svg width="15" height="18" viewBox="0 0 15 18" fill="none" xmlns="http://www.w3.org/2000/svg">
<path d="M13.4685 1C13.6029 1 13.7125 1.03263 13.7979 1.09768C13.8829 1.16274 13.9412 1.24964 13.9726 1.35818C14.004 1.46665 14.0083 1.59038 13.986 1.72925C13.9636 1.86824 13.9122 2.0071 13.8315 2.1459C13.8135 2.16327 13.7911 2.16327 13.7642 2.1459C13.7374 2.12847 13.7194 2.10689 13.7105 2.08078C13.7284 1.97658 13.6904 1.88988 13.5962 1.82035C13.5021 1.75102 13.3563 1.71616 13.1593 1.71616C12.7917 1.71616 12.422 1.84857 12.0501 2.11334C11.6781 2.37824 11.3173 2.72773 10.9679 3.16149C10.6183 3.59565 10.2911 4.09492 9.98643 4.65899C9.68185 5.22267 9.41682 5.80558 9.19313 6.40376C8.96913 7.0027 8.79192 7.59736 8.66213 8.18761C8.5322 8.77806 8.46733 9.31608 8.46733 9.80233C8.46733 10.0626 8.5434 10.1929 8.69588 10.1929C8.8034 10.1929 8.90868 10.1495 9.01171 10.0626C9.11468 9.97586 9.23368 9.84574 9.36809 9.67195C9.39492 9.65485 9.41957 9.65695 9.44192 9.67853C9.46426 9.70043 9.47099 9.72852 9.46223 9.76306C9.28271 10.0236 9.0723 10.2406 8.83023 10.4141C8.5883 10.5879 8.36851 10.6746 8.17147 10.6746C8.00113 10.6746 7.88247 10.6268 7.8153 10.5312C7.74813 10.4359 7.71444 10.3145 7.71444 10.1668C7.71444 9.75878 7.80389 9.24865 7.9834 8.63689C8.16257 8.02487 8.40213 7.37824 8.70268 6.69668C9.00288 6.01533 9.35016 5.33607 9.74457 4.65899C10.1389 3.98191 10.549 3.37219 10.9748 2.82963C11.4004 2.28713 11.8286 1.84653 12.2587 1.50789C12.6886 1.16919 13.0919 1 13.4685 1ZM1.5316 17C1.39712 17 1.28742 16.9674 1.20212 16.9024C1.11708 16.8373 1.0588 16.7504 1.02736 16.6419C0.996114 16.5333 0.991632 16.4097 1.01391 16.2708C1.03646 16.1318 1.08787 15.993 1.1685 15.8542C1.18656 15.8367 1.20884 15.8367 1.23574 15.8542C1.26257 15.8714 1.28056 15.8932 1.28946 15.9193C1.27167 16.0235 1.30963 16.1102 1.40377 16.1797C1.49784 16.249 1.6436 16.2838 1.8407 16.2838C2.20829 16.2838 2.57804 16.1514 2.94984 15.8866C3.32184 15.622 3.6827 15.2725 4.03221 14.8386C4.38173 14.4045 4.70897 13.9053 5.01366 13.3411C5.31819 12.7774 5.58316 12.1945 5.80676 11.5963C6.0309 10.9974 6.20804 10.4028 6.3379 9.81246C6.46783 9.22208 6.53269 8.68399 6.53269 8.19787C6.53269 7.93738 6.45662 7.80726 6.30414 7.80726C6.19656 7.80726 6.09128 7.85048 5.98831 7.93738C5.88535 8.02401 5.76635 8.15445 5.63194 8.32811C5.60511 8.34522 5.58052 8.34311 5.55811 8.32154C5.53583 8.2997 5.52911 8.27148 5.53787 8.23675C5.71731 7.97652 5.92773 7.75931 6.1698 7.58571C6.41173 7.41218 6.63145 7.32548 6.82856 7.32548C6.9989 7.32548 7.11756 7.37298 7.18473 7.46856C7.25197 7.56414 7.28566 7.68563 7.28566 7.83331C7.28566 8.24128 7.19614 8.75115 7.01669 9.36324C6.83752 9.97527 6.5979 10.6218 6.29742 11.3034C5.99721 11.9847 5.64987 12.664 5.25552 13.3411C4.86111 14.0182 4.45108 14.6279 4.02529 15.1704C3.5997 15.7129 3.17153 16.1536 2.74132 16.492C2.31132 16.8307 1.90801 17 1.5316 17Z" fill="black" stroke="black" stroke-width="0.5"/>
</svg>
