<svg width="12" height="12" viewBox="0 0 12 12" fill="none" xmlns="http://www.w3.org/2000/svg">
<mask id="path-1-inside-1_54_1302" fill="white">
<path d="M4.34588 9.4899C4.20483 10.2079 3.57204 10.7496 2.81275 10.7496H1.56278C1.39019 10.7496 1.25028 10.6097 1.25028 10.4371V9.18695C1.25028 8.42758 1.79188 7.79472 2.50983 7.65366L2.51722 7.43939C2.52971 7.0771 2.56702 6.72151 2.62746 6.37421H0.312802C0.0917236 6.37421 -0.0594476 6.1509 0.0226587 5.94561L1.27263 2.82034C1.32009 2.70169 1.435 2.62389 1.56278 2.62389H4.37522C4.39108 2.62389 4.40667 2.62507 4.4219 2.62735C5.89337 0.949659 8.07809 -0.0782424 10.4822 0.00466523C10.8638 0.0178274 11.244 0.0593527 11.6195 0.128898C11.7467 0.152464 11.8463 0.252032 11.8698 0.379292C12.3827 3.14887 11.3452 5.84655 9.37182 7.57876C9.37399 7.59363 9.37512 7.60884 9.37512 7.62432V10.4371C9.37512 10.5649 9.29732 10.6798 9.17868 10.7272L6.05374 11.9773C5.84848 12.0595 5.62519 11.9083 5.62519 11.6872V9.3713C5.27321 9.43303 4.91733 9.47019 4.56012 9.48251L4.34588 9.4899ZM3.74241 9.30859L2.69113 8.25719C2.23083 8.31682 1.87527 8.71036 1.87527 9.18695V10.1245H2.81275C3.28929 10.1245 3.68279 9.76893 3.74241 9.30859ZM6.25018 9.23509V11.2256L8.75013 10.2255V8.07012C8.01132 8.59445 7.16976 8.99477 6.25018 9.23509ZM2.76325 5.74916C3.00151 4.8375 3.40185 3.99366 3.93068 3.24894H1.77434L0.774365 5.74916H2.76325ZM4.18767 8.86993L4.53859 8.85783C4.88929 8.84573 5.2386 8.80758 5.58364 8.74367C9.35649 8.04492 11.8724 4.47403 11.2916 0.707246C11.0165 0.664966 10.739 0.638947 10.4606 0.629348C6.5533 0.494598 3.27657 3.5532 3.14184 7.46093L3.12974 7.81189L4.18767 8.86993ZM7.50015 6.37421C6.46464 6.37421 5.62519 5.53467 5.62519 4.49905C5.62519 3.46343 6.46464 2.62389 7.50015 2.62389C8.53567 2.62389 9.37512 3.46343 9.37512 4.49905C9.37512 5.53467 8.53567 6.37421 7.50015 6.37421ZM7.50015 5.74916C8.1905 5.74916 8.75013 5.18946 8.75013 4.49905C8.75013 3.80863 8.1905 3.24894 7.50015 3.24894C6.80981 3.24894 6.25018 3.80863 6.25018 4.49905C6.25018 5.18946 6.80981 5.74916 7.50015 5.74916Z"/>
</mask>
<path d="M4.34588 9.4899C4.20483 10.2079 3.57204 10.7496 2.81275 10.7496H1.56278C1.39019 10.7496 1.25028 10.6097 1.25028 10.4371V9.18695C1.25028 8.42758 1.79188 7.79472 2.50983 7.65366L2.51722 7.43939C2.52971 7.0771 2.56702 6.72151 2.62746 6.37421H0.312802C0.0917236 6.37421 -0.0594476 6.1509 0.0226587 5.94561L1.27263 2.82034C1.32009 2.70169 1.435 2.62389 1.56278 2.62389H4.37522C4.39108 2.62389 4.40667 2.62507 4.4219 2.62735C5.89337 0.949659 8.07809 -0.0782424 10.4822 0.00466523C10.8638 0.0178274 11.244 0.0593527 11.6195 0.128898C11.7467 0.152464 11.8463 0.252032 11.8698 0.379292C12.3827 3.14887 11.3452 5.84655 9.37182 7.57876C9.37399 7.59363 9.37512 7.60884 9.37512 7.62432V10.4371C9.37512 10.5649 9.29732 10.6798 9.17868 10.7272L6.05374 11.9773C5.84848 12.0595 5.62519 11.9083 5.62519 11.6872V9.3713C5.27321 9.43303 4.91733 9.47019 4.56012 9.48251L4.34588 9.4899ZM3.74241 9.30859L2.69113 8.25719C2.23083 8.31682 1.87527 8.71036 1.87527 9.18695V10.1245H2.81275C3.28929 10.1245 3.68279 9.76893 3.74241 9.30859ZM6.25018 9.23509V11.2256L8.75013 10.2255V8.07012C8.01132 8.59445 7.16976 8.99477 6.25018 9.23509ZM2.76325 5.74916C3.00151 4.8375 3.40185 3.99366 3.93068 3.24894H1.77434L0.774365 5.74916H2.76325ZM4.18767 8.86993L4.53859 8.85783C4.88929 8.84573 5.2386 8.80758 5.58364 8.74367C9.35649 8.04492 11.8724 4.47403 11.2916 0.707246C11.0165 0.664966 10.739 0.638947 10.4606 0.629348C6.5533 0.494598 3.27657 3.5532 3.14184 7.46093L3.12974 7.81189L4.18767 8.86993ZM7.50015 6.37421C6.46464 6.37421 5.62519 5.53467 5.62519 4.49905C5.62519 3.46343 6.46464 2.62389 7.50015 2.62389C8.53567 2.62389 9.37512 3.46343 9.37512 4.49905C9.37512 5.53467 8.53567 6.37421 7.50015 6.37421ZM7.50015 5.74916C8.1905 5.74916 8.75013 5.18946 8.75013 4.49905C8.75013 3.80863 8.1905 3.24894 7.50015 3.24894C6.80981 3.24894 6.25018 3.80863 6.25018 4.49905C6.25018 5.18946 6.80981 5.74916 7.50015 5.74916Z" fill="black"/>
<path d="M4.34588 9.4899L4.27695 7.49109L2.68954 7.54583L2.38338 9.1044L4.34588 9.4899ZM2.50983 7.65366L2.89541 9.61614L4.45391 9.30993L4.50865 7.72258L2.50983 7.65366ZM2.51722 7.43939L4.51604 7.50831V7.50831L2.51722 7.43939ZM2.62746 6.37421L4.59785 6.71708L5.00553 4.37421H2.62746V6.37421ZM0.0226587 5.94561L-1.83432 5.2029L0.0226587 5.94561ZM1.27263 2.82034L3.12961 3.56306L1.27263 2.82034ZM4.4219 2.62735L4.12559 4.60528L5.20549 4.76706L5.9255 3.94613L4.4219 2.62735ZM10.4822 0.00466523L10.5511 -1.99415L10.4822 0.00466523ZM11.6195 0.128898L11.2553 2.09545L11.6195 0.128898ZM11.8698 0.379292L13.8364 0.0151509V0.0151508L11.8698 0.379292ZM9.37182 7.57876L8.05245 6.07566L7.23577 6.79252L7.39281 7.86778L9.37182 7.57876ZM9.17868 10.7272L8.43583 8.87031H8.43583L9.17868 10.7272ZM6.05374 11.9773L5.31089 10.1204L6.05374 11.9773ZM5.62519 9.3713H7.62519V6.99005L5.27974 7.40136L5.62519 9.3713ZM4.56012 9.48251L4.62905 11.4813H4.62906L4.56012 9.48251ZM3.74241 9.30859L5.72584 9.5655L5.8522 8.59002L5.1567 7.89445L3.74241 9.30859ZM2.69113 8.25719L4.10542 6.84305L3.4098 6.14736L2.43416 6.27377L2.69113 8.25719ZM1.87527 10.1245H-0.12473V12.1245H1.87527V10.1245ZM6.25018 9.23509L5.7445 7.30007L4.25018 7.69058V9.23509H6.25018ZM6.25018 11.2256H4.25018V14.1797L6.99303 13.0825L6.25018 11.2256ZM8.75013 10.2255L9.49298 12.0824L10.7501 11.5795V10.2255H8.75013ZM8.75013 8.07012H10.7501V4.19823L7.59261 6.43912L8.75013 8.07012ZM2.76325 5.74916V7.74916H4.30771L4.69825 6.25488L2.76325 5.74916ZM3.93068 3.24894L5.56136 4.40691L7.80389 1.24894H3.93068V3.24894ZM1.77434 3.24894V1.24894H0.420225L-0.0826359 2.50623L1.77434 3.24894ZM0.774365 5.74916L-1.08262 5.00644L-2.17958 7.74916H0.774365V5.74916ZM4.18767 8.86993L2.77338 10.2841L3.38795 10.8987L4.2566 10.8687L4.18767 8.86993ZM4.53859 8.85783L4.46965 6.85902L4.46965 6.85902L4.53859 8.85783ZM5.58364 8.74367L5.21942 6.77712L5.58364 8.74367ZM11.2916 0.707246L13.2683 0.402489L13.0448 -1.04684L11.5954 -1.26955L11.2916 0.707246ZM10.4606 0.629348L10.3917 2.62816L10.4606 0.629348ZM3.14184 7.46093L5.14065 7.52985V7.52985L3.14184 7.46093ZM3.12974 7.81189L1.13093 7.74297L1.10098 8.61149L1.71545 9.22602L3.12974 7.81189ZM2.38338 9.1044C2.42302 8.90258 2.5977 8.74959 2.81275 8.74959V12.7496C4.54638 12.7496 5.98664 11.5133 6.30837 9.8754L2.38338 9.1044ZM2.81275 8.74959H1.56278V12.7496H2.81275V8.74959ZM1.56278 8.74959C2.49496 8.74959 3.25028 9.50529 3.25028 10.4371H-0.749717C-0.749717 11.714 0.285421 12.7496 1.56278 12.7496V8.74959ZM3.25028 10.4371V9.18695H-0.749717V10.4371H3.25028ZM3.25028 9.18695C3.25028 9.4016 3.09756 9.57642 2.89541 9.61614L2.12425 5.69118C0.486202 6.01302 -0.749717 7.45356 -0.749717 9.18695H3.25028ZM4.50865 7.72258L4.51604 7.50831L0.518411 7.37047L0.511023 7.58474L4.50865 7.72258ZM4.51604 7.50831C4.52535 7.23814 4.55312 6.97409 4.59785 6.71708L0.657064 6.03134C0.580919 6.46894 0.534079 6.91605 0.518411 7.37047L4.51604 7.50831ZM2.62746 4.37421H0.312802V8.37421H2.62746V4.37421ZM0.312802 4.37421C1.50694 4.37421 2.32284 5.58019 1.87964 6.68833L-1.83432 5.2029C-2.44174 6.72161 -1.3235 8.37421 0.312802 8.37421V4.37421ZM1.87964 6.68833L3.12961 3.56306L-0.584347 2.07763L-1.83432 5.2029L1.87964 6.68833ZM3.12961 3.56306C2.8734 4.20366 2.25293 4.62389 1.56278 4.62389V0.623888C0.617058 0.623888 -0.23322 1.19972 -0.584347 2.07763L3.12961 3.56306ZM1.56278 4.62389H4.37522V0.623888H1.56278V4.62389ZM4.37522 4.62389C4.29157 4.62389 4.20812 4.61764 4.12559 4.60528L4.71821 0.649423C4.60523 0.632497 4.4906 0.623888 4.37522 0.623888V4.62389ZM5.9255 3.94613C7.01835 2.70013 8.63412 1.94212 10.4132 2.00348L10.5511 -1.99415C7.52206 -2.09861 4.7684 -0.800808 2.9183 1.30857L5.9255 3.94613ZM10.4132 2.00348C10.6958 2.01322 10.9772 2.04397 11.2553 2.09545L11.9837 -1.83766C11.5107 -1.92526 11.0318 -1.97757 10.5511 -1.99415L10.4132 2.00348ZM11.2553 2.09545C10.568 1.96817 10.0305 1.43045 9.90327 0.743433L13.8364 0.0151508C13.6621 -0.926386 12.9254 -1.66324 11.9837 -1.83766L11.2553 2.09545ZM9.90327 0.743433C10.2826 2.79182 9.51816 4.78912 8.05245 6.07566L10.6912 9.08185C13.1723 6.90398 14.4828 3.50592 13.8364 0.0151509L9.90327 0.743433ZM7.39281 7.86778C7.38106 7.78729 7.37512 7.70591 7.37512 7.62432H11.3751C11.3751 7.51177 11.3669 7.39997 11.3508 7.28973L7.39281 7.86778ZM7.37512 7.62432V10.4371H11.3751V7.62432H7.37512ZM7.37512 10.4371C7.37512 9.74718 7.79509 9.12663 8.43583 8.87031L9.92153 12.5842C10.7995 12.2329 11.3751 11.3825 11.3751 10.4371H7.37512ZM8.43583 8.87031L5.31089 10.1204L6.79659 13.8343L9.92153 12.5842L8.43583 8.87031ZM5.31089 10.1204C6.41967 9.67686 7.62519 10.4936 7.62519 11.6872H3.62519C3.62519 13.3229 5.27729 14.4421 6.79659 13.8343L5.31089 10.1204ZM7.62519 11.6872V9.3713H3.62519V11.6872H7.62519ZM5.27974 7.40136C5.01913 7.44706 4.75565 7.47458 4.49119 7.4837L4.62906 11.4813C5.079 11.4658 5.52728 11.419 5.97065 11.3412L5.27974 7.40136ZM4.4912 7.4837L4.27695 7.49109L4.4148 11.4887L4.62905 11.4813L4.4912 7.4837ZM5.1567 7.89445L4.10542 6.84305L1.27684 9.67133L2.32813 10.7227L5.1567 7.89445ZM2.43416 6.27377C0.989715 6.4609 -0.12473 7.69232 -0.12473 9.18695H3.87527C3.87527 9.72839 3.47194 10.1727 2.94809 10.2406L2.43416 6.27377ZM-0.12473 9.18695V10.1245H3.87527V9.18695H-0.12473ZM1.87527 12.1245H2.81275V8.12453H1.87527V12.1245ZM2.81275 12.1245C4.30767 12.1245 5.53878 11.0097 5.72584 9.5655L1.75898 9.05167C1.82679 8.52817 2.27091 8.12453 2.81275 8.12453V12.1245ZM4.25018 9.23509V11.2256H8.25018V9.23509H4.25018ZM6.99303 13.0825L9.49298 12.0824L8.00728 8.36854L5.50733 9.36863L6.99303 13.0825ZM10.7501 10.2255V8.07012H6.75013V10.2255H10.7501ZM7.59261 6.43912C7.04722 6.82619 6.42585 7.12201 5.7445 7.30007L6.75586 11.1701C7.91366 10.8675 8.97543 10.3627 9.90765 9.70112L7.59261 6.43912ZM4.69825 6.25488C4.8741 5.58205 5.16968 4.95848 5.56136 4.40691L2.30001 2.09097C1.63401 3.02883 1.12892 4.09296 0.828241 5.24343L4.69825 6.25488ZM3.93068 1.24894H1.77434V5.24894H3.93068V1.24894ZM-0.0826359 2.50623L-1.08262 5.00644L2.63135 6.49187L3.63133 3.99165L-0.0826359 2.50623ZM0.774365 7.74916H2.76325V3.74916H0.774365V7.74916ZM4.2566 10.8687L4.60752 10.8566L4.46965 6.85902L4.11874 6.87112L4.2566 10.8687ZM4.60752 10.8566C5.05731 10.8411 5.50532 10.7922 5.94786 10.7102L5.21942 6.77712C4.97188 6.82296 4.72126 6.85034 4.46965 6.85902L4.60752 10.8566ZM5.94786 10.7102C10.7871 9.81398 14.0132 5.23432 13.2683 0.402489L9.31499 1.012C9.73154 3.71375 7.92585 6.27587 5.21942 6.77712L5.94786 10.7102ZM11.5954 -1.26955C11.2424 -1.32378 10.8866 -1.35715 10.5295 -1.36946L10.3917 2.62816C10.5914 2.63505 10.7905 2.65371 10.9879 2.68405L11.5954 -1.26955ZM10.5295 -1.36946C5.51812 -1.54229 1.31582 2.38057 1.14303 7.39201L5.14065 7.52985C5.23733 4.72584 7.58849 2.53149 10.3917 2.62816L10.5295 -1.36946ZM1.14303 7.39201L1.13093 7.74297L5.12855 7.8808L5.14065 7.52985L1.14303 7.39201ZM1.71545 9.22602L2.77338 10.2841L5.60196 7.45579L4.54403 6.39775L1.71545 9.22602ZM7.50015 4.37421C7.56941 4.37421 7.62519 4.4303 7.62519 4.49905H3.62519C3.62519 6.63904 5.35987 8.37421 7.50015 8.37421V4.37421ZM7.62519 4.49905C7.62519 4.56779 7.56941 4.62389 7.50015 4.62389V0.623888C5.35987 0.623888 3.62519 2.35906 3.62519 4.49905H7.62519ZM7.50015 4.62389C7.4309 4.62389 7.37512 4.56779 7.37512 4.49905H11.3751C11.3751 2.35906 9.64044 0.623888 7.50015 0.623888V4.62389ZM7.37512 4.49905C7.37512 4.4303 7.4309 4.37421 7.50015 4.37421V8.37421C9.64044 8.37421 11.3751 6.63904 11.3751 4.49905H7.37512ZM7.50015 7.74916C9.29527 7.74916 10.7501 6.29383 10.7501 4.49905H6.75013C6.75013 4.08509 7.08573 3.74916 7.50015 3.74916V7.74916ZM10.7501 4.49905C10.7501 2.70426 9.29527 1.24894 7.50015 1.24894V5.24894C7.08573 5.24894 6.75013 4.913 6.75013 4.49905H10.7501ZM7.50015 1.24894C5.70504 1.24894 4.25018 2.70426 4.25018 4.49905H8.25018C8.25018 4.913 7.91458 5.24894 7.50015 5.24894V1.24894ZM4.25018 4.49905C4.25018 6.29383 5.70504 7.74916 7.50015 7.74916V3.74916C7.91458 3.74916 8.25018 4.08509 8.25018 4.49905H4.25018Z" fill="black" mask="url(#path-1-inside-1_54_1302)"/>
</svg>
