<svg width="48" height="48" viewBox="0 0 48 48" fill="none" xmlns="http://www.w3.org/2000/svg">
<path fill-rule="evenodd" clip-rule="evenodd" d="M0 10C0 4.47715 4.47715 0 10 0L38 0C43.5229 0 48 4.47715 48 10V38C48 43.5229 43.5228 48 38 48H10C4.47715 48 0 43.5228 0 38V10ZM11.4636 12.5053H35.9C37.58 12.5053 38.9545 13.8695 38.9545 15.5368V33.7263C38.9545 35.3937 37.58 36.7579 35.9 36.7579H11.4636C9.78364 36.7579 8.40909 35.3937 8.40909 33.7263L8.42437 15.5368C8.42437 13.8695 9.78364 12.5053 11.4636 12.5053ZM23.6818 26.1474L11.4637 18.5683V33.7263H35.9V18.5683L23.6818 26.1474ZM23.6818 23.1158L11.4637 15.5369H35.9L23.6818 23.1158Z" fill="#DD762B"/>
</svg>
