<svg width="12" height="12" viewBox="0 0 12 12" fill="none" xmlns="http://www.w3.org/2000/svg">
<path fill-rule="evenodd" clip-rule="evenodd" d="M6 5.67065e-07C2.68543 5.67065e-07 0 2.75371 0 6.15231C0 8.87083 1.71943 11.1759 4.10314 11.9897C4.40314 12.046 4.51286 11.8559 4.51286 11.6932C4.51286 11.5471 4.50771 11.16 4.50429 10.6462C2.83543 11.0184 2.484 9.82187 2.484 9.82187C2.21057 9.11101 1.81714 8.92186 1.81714 8.92186C1.27286 8.54003 1.85829 8.54795 1.85829 8.54795C2.46086 8.59194 2.778 9.18139 2.778 9.18139C3.31286 10.1228 4.182 9.85002 4.524 9.69342C4.578 9.29576 4.73314 9.02479 4.90457 8.87083C3.57257 8.71599 2.172 8.18812 2.172 5.83031C2.172 5.15903 2.406 4.60917 2.78914 4.17984C2.72743 4.02412 2.52171 3.39859 2.84914 2.55224C2.84914 2.55224 3.35143 2.38597 4.49829 3.18217C4.98775 3.04529 5.4927 2.97548 6 2.97454C6.51 2.97718 7.02343 3.04492 7.50257 3.18217C8.64771 2.38597 9.15086 2.55136 9.15086 2.55136C9.47829 3.39859 9.27257 4.02412 9.21086 4.17896C9.59486 4.61005 9.828 5.15903 9.828 5.83031C9.828 8.1934 8.424 8.71423 7.08771 8.86555C7.30286 9.05558 7.49486 9.43125 7.49486 10.0057C7.49486 10.8275 7.48714 11.4908 7.48714 11.6932C7.48714 11.8577 7.596 12.0486 7.90029 11.9888C9.09375 11.5803 10.1318 10.7969 10.8676 9.74947C11.6033 8.70203 11.9995 7.4436 12 6.15231C11.9991 4.51983 11.3665 2.95458 10.2413 1.80082C9.11608 0.647067 7.59047 -0.000699631 6 5.67065e-07Z" fill="#211F1D"/>
</svg>
