<svg width="16" height="16" viewBox="0 0 16 16" fill="none" xmlns="http://www.w3.org/2000/svg">
<path d="M16 0H2.3809e-05L0 16H16V0Z" fill="black"/>
<path d="M13.365 5.05427C12.8217 4.12335 12.0847 3.38634 11.1539 2.84307C10.2229 2.29978 9.20657 2.0282 8.10413 2.0282C7.00184 2.0282 5.98516 2.29986 5.05438 2.84307C4.12346 3.38631 3.38651 4.12335 2.84319 5.05427C2.29995 5.98516 2.02832 7.0017 2.02832 8.10386C2.02832 9.42781 2.41459 10.6183 3.18731 11.6758C3.95995 12.7332 4.95809 13.465 6.18164 13.8711C6.32407 13.8975 6.4295 13.8789 6.49806 13.8158C6.56664 13.7525 6.60088 13.6733 6.60088 13.5785C6.60088 13.5627 6.59953 13.4204 6.59689 13.1513C6.59418 12.8823 6.5929 12.6476 6.5929 12.4473L6.41094 12.4788C6.29492 12.5001 6.14856 12.5091 5.97186 12.5065C5.79524 12.5041 5.61189 12.4856 5.42205 12.4511C5.23214 12.417 5.05549 12.3379 4.89198 12.214C4.72855 12.09 4.61253 11.9278 4.54395 11.7275L4.46484 11.5455C4.41211 11.4243 4.32909 11.2896 4.21568 11.142C4.10227 10.9943 3.98758 10.8942 3.87156 10.8415L3.81617 10.8018C3.77926 10.7754 3.74501 10.7437 3.71334 10.7068C3.6817 10.6699 3.65801 10.633 3.64218 10.596C3.62633 10.559 3.63947 10.5287 3.68173 10.5049C3.72398 10.4811 3.80035 10.4695 3.91116 10.4695L4.06932 10.4932C4.17481 10.5143 4.30529 10.5775 4.46093 10.683C4.61649 10.7885 4.74437 10.9256 4.84459 11.0943C4.96596 11.3106 5.11218 11.4754 5.28367 11.5888C5.45503 11.7022 5.62779 11.7588 5.80181 11.7588C5.97582 11.7588 6.12612 11.7456 6.25275 11.7194C6.37924 11.693 6.49792 11.6534 6.60873 11.6007C6.65619 11.2471 6.78543 10.9756 6.99632 10.7857C6.69573 10.7541 6.42549 10.7066 6.18544 10.6433C5.94554 10.58 5.69762 10.4772 5.44187 10.3346C5.18597 10.1923 4.97369 10.0155 4.80497 9.80466C4.63622 9.59368 4.49773 9.3167 4.38969 8.97396C4.2816 8.63109 4.22754 8.23557 4.22754 7.78729C4.22754 7.149 4.43591 6.60585 4.85258 6.15751C4.65739 5.67764 4.67582 5.1397 4.90791 4.54373C5.06087 4.4962 5.28769 4.53187 5.58828 4.65049C5.88893 4.76917 6.10905 4.87083 6.24887 4.95512C6.38869 5.03939 6.50072 5.1108 6.58512 5.16871C7.07571 5.03163 7.58198 4.96308 8.10408 4.96308C8.62617 4.96308 9.13256 5.03163 9.62318 5.16871L9.92379 4.97893C10.1294 4.8523 10.3721 4.73625 10.6515 4.63076C10.931 4.52533 11.1448 4.49629 11.2925 4.54381C11.5298 5.13981 11.5509 5.67773 11.3557 6.15759C11.7723 6.60593 11.9808 7.14923 11.9808 7.78737C11.9808 8.23565 11.9265 8.63242 11.8186 8.97792C11.7105 9.32349 11.5708 9.60019 11.3995 9.80862C11.2279 10.017 11.0143 10.1924 10.7585 10.3347C10.5027 10.4771 10.2547 10.5799 10.0148 10.6433C9.7748 10.7066 9.50455 10.7542 9.20397 10.7859C9.47812 11.0231 9.61522 11.3976 9.61522 11.9092V13.5783C9.61522 13.6731 9.6482 13.7523 9.7142 13.8155C9.78012 13.8787 9.88422 13.8973 10.0266 13.8708C11.2504 13.4648 12.2485 12.733 13.0211 11.6755C13.7937 10.6181 14.1801 9.42759 14.1801 8.10364C14.1798 7.00162 13.908 5.98516 13.365 5.05427Z" fill="white"/>
</svg>
