<svg width="46" height="46" viewBox="0 0 46 46" fill="none" xmlns="http://www.w3.org/2000/svg">
<path fill-rule="evenodd" clip-rule="evenodd" d="M23 2.17375e-06C10.2941 2.17375e-06 0 10.5559 0 23.5838C0 34.0048 6.59114 42.8408 15.7287 45.9603C16.8787 46.1762 17.2993 45.4477 17.2993 44.8238C17.2993 44.264 17.2796 42.7801 17.2664 40.8105C10.8691 42.2371 9.522 37.6505 9.522 37.6505C8.47386 34.9255 6.96571 34.2004 6.96571 34.2004C4.87929 32.7368 7.12343 32.7671 7.12343 32.7671C9.43329 32.9358 10.649 35.1953 10.649 35.1953C12.6993 38.8039 16.031 37.7584 17.342 37.1581C17.549 35.6338 18.1437 34.595 18.8009 34.0048C13.6949 33.4113 8.326 31.3878 8.326 22.3495C8.326 19.7763 9.223 17.6685 10.6917 16.0227C10.4551 15.4258 9.66657 13.0279 10.9217 9.7836C10.9217 9.7836 12.8471 9.1462 17.2434 12.1983C19.1197 11.6736 21.0553 11.406 23 11.4024C24.955 11.4125 26.9231 11.6722 28.7599 12.1983C33.1496 9.1462 35.0783 9.78023 35.0783 9.78023C36.3334 13.0279 35.5449 15.4258 35.3083 16.0193C36.7803 17.6719 37.674 19.7763 37.674 22.3495C37.674 31.408 32.292 33.4045 27.1696 33.9846C27.9943 34.7131 28.7303 36.1531 28.7303 38.3554C28.7303 41.5053 28.7007 44.0481 28.7007 44.8238C28.7007 45.4545 29.118 46.1863 30.2844 45.957C34.8594 44.3912 38.8387 41.3881 41.6591 37.373C44.4795 33.3578 45.9981 28.5338 46 23.5838C45.9965 17.326 43.5715 11.3259 39.2582 6.90315C34.945 2.48042 29.0968 -0.00268192 23 2.17375e-06Z" fill="#F7F3EF"/>
</svg>
