<svg width="48" height="48" viewBox="0 0 48 48" fill="none" xmlns="http://www.w3.org/2000/svg">
<path d="M38.5352 0H9.46479C4.23753 0 0 4.23753 0 9.46479V38.5352C0 43.7625 4.23753 48 9.46479 48H38.5352C43.7625 48 48 43.7625 48 38.5352V9.46479C48 4.23753 43.7625 0 38.5352 0Z" fill="#24292F"/>
<path d="M40.0948 15.1627C38.4648 12.37 36.2539 10.159 33.4614 8.52915C30.6684 6.89927 27.6194 6.08453 24.3121 6.08453C21.0052 6.08453 17.9551 6.89952 15.1628 8.52915C12.37 10.1589 10.1592 12.37 8.52921 15.1627C6.8995 17.9554 6.08459 21.005 6.08459 24.3115C6.08459 28.2834 7.24339 31.8549 9.56158 35.0272C11.8795 38.1997 14.8739 40.3949 18.5446 41.6131C18.9719 41.6924 19.2882 41.6367 19.4938 41.4472C19.6996 41.2575 19.8023 41.0199 19.8023 40.7355C19.8023 40.688 19.7982 40.261 19.7903 39.4539C19.7822 38.6468 19.7784 37.9427 19.7784 37.3419L19.2325 37.4364C18.8844 37.5001 18.4453 37.5272 17.9152 37.5195C17.3854 37.5121 16.8353 37.4566 16.2658 37.3533C15.6961 37.251 15.1661 37.0137 14.6756 36.6418C14.1853 36.27 13.8372 35.7833 13.6315 35.1825L13.3942 34.6363C13.236 34.2727 12.9869 33.8688 12.6467 33.4261C12.3065 32.9829 11.9624 32.6825 11.6143 32.5243L11.4482 32.4053C11.3374 32.3263 11.2347 32.2309 11.1397 32.1203C11.0447 32.0096 10.9737 31.8989 10.9262 31.788C10.8786 31.677 10.9181 31.586 11.0448 31.5146C11.1716 31.4432 11.4007 31.4085 11.7331 31.4085L12.2076 31.4795C12.5241 31.5429 12.9155 31.7323 13.3825 32.049C13.8491 32.3653 14.2328 32.7767 14.5334 33.2827C14.8975 33.9316 15.3362 34.4261 15.8507 34.7663C16.3647 35.1066 16.883 35.2764 17.4051 35.2764C17.9271 35.2764 18.378 35.2368 18.7579 35.1581C19.1374 35.079 19.4934 34.96 19.8258 34.8019C19.9682 33.7414 20.356 32.9266 20.9886 32.3571C20.0869 32.2623 19.2761 32.1196 18.556 31.9298C17.8363 31.7398 17.0925 31.4314 16.3253 31.0038C15.5576 30.5768 14.9207 30.0465 14.4146 29.4139C13.9083 28.781 13.4928 27.95 13.1687 26.9218C12.8445 25.8932 12.6823 24.7066 12.6823 23.3618C12.6823 21.4469 13.3074 19.8175 14.5574 18.4725C13.9718 17.0329 14.0271 15.419 14.7234 13.6311C15.1823 13.4885 15.8627 13.5955 16.7645 13.9514C17.6664 14.3074 18.3268 14.6124 18.7463 14.8653C19.1657 15.1181 19.5018 15.3323 19.755 15.5061C21.2268 15.0948 22.7456 14.8892 24.3119 14.8892C25.8782 14.8892 27.3974 15.0948 28.8692 15.5061L29.7711 14.9367C30.3878 14.5568 31.1161 14.2087 31.9542 13.8922C32.7928 13.5759 33.434 13.4888 33.8772 13.6314C34.589 15.4194 34.6524 17.0331 34.0667 18.4727C35.3166 19.8177 35.942 21.4476 35.942 23.362C35.942 24.7069 35.7792 25.8972 35.4554 26.9337C35.1312 27.9704 34.7122 28.8005 34.1981 29.4258C33.6835 30.051 33.0426 30.5771 32.2753 31.004C31.5079 31.4313 30.7639 31.7397 30.0441 31.9298C29.3241 32.1198 28.5134 32.2626 27.6116 32.3575C28.434 33.0693 28.8454 34.1927 28.8454 35.7274V40.7348C28.8454 41.0193 28.9443 41.2568 29.1423 41.4465C29.3401 41.636 29.6524 41.6918 30.0796 41.6124C33.7508 40.3943 36.7452 38.199 39.0631 35.0265C41.3807 31.8543 42.5399 28.2827 42.5399 24.3109C42.5391 21.0048 41.7237 17.9554 40.0948 15.1627Z" fill="white"/>
</svg>
