<svg width="48" height="48" viewBox="0 0 48 48" fill="none" xmlns="http://www.w3.org/2000/svg">
<g clip-path="url(#clip0_15_95)">
<path d="M40.9001 40.8999H33.7881V29.7599C33.7881 27.1039 33.7401 23.6839 30.0881 23.6839C26.3841 23.6839 25.8161 26.5799 25.8161 29.5639V40.8999H18.7041V17.9919H25.5321V21.1239H25.6281C27.0201 18.7479 29.6121 17.3239 32.3641 17.4239C39.5721 17.4239 40.9041 22.1639 40.9041 28.3359L40.9001 40.8959V40.8999ZM10.6801 14.8599C9.58759 14.8547 8.54127 14.4186 7.76836 13.6465C6.99546 12.8743 6.5584 11.8284 6.55209 10.7359C6.55209 8.47193 8.41609 6.60793 10.6801 6.60793C12.9441 6.60793 14.8041 8.47193 14.8081 10.7359C14.8081 12.9999 12.9441 14.8599 10.6801 14.8599ZM14.2361 40.8999H7.11609V17.9919H14.2361V40.8999ZM31.4999 -6.71416e-05L17 0.00532109C16.5433 0.00266857 13.5052 0.00133777 10.0014 0.000673824C4.47841 -0.000372762 0.00352062 4.47923 0.00609787 10.0022C0.00740176 12.7965 0.00674746 15.0812 9.02191e-05 15.5L-0.0145765 30.5727C-0.00775402 31.0019 -0.00412559 34.3395 -0.00219607 37.9992C0.000715763 43.522 4.47924 48.0021 10.0021 48.0023C12.0086 48.0024 13.599 48.0018 13.9273 47.9999H32.3641C32.7568 48.0031 35.1623 48.0036 37.9983 48.0031C43.5212 48.0022 47.9936 43.5207 47.9927 37.9979C47.9923 35.9566 47.994 34.3386 48.0001 34V18.5C47.9921 18.0612 47.9917 14.1299 47.9934 9.99907C47.9958 4.47672 43.5223 -0.00211014 38 -0.00167509C35.1641 -0.00145168 32.7496 -7.35748e-05 32.3641 0.00393257L31.4999 -6.71416e-05Z" fill="#0A66C2"/>
</g>
<defs>
<clipPath id="clip0_15_95">
<rect width="48" height="48" fill="white"/>
</clipPath>
</defs>
</svg>
