<svg width="17" height="16" viewBox="0 0 17 16" fill="none" xmlns="http://www.w3.org/2000/svg">
<rect y="0.0020752" width="15.9979" height="15.9979" fill="white"/>
<path d="M14.7178 0.00350271H5.00865e-05L3.83808e-05 14.6303C0.0101168 14.9903 3.37404e-07 15.9998 3.37404e-07 15.9998C3.37404e-07 15.9998 1.00972 15.9899 1.36983 16H14.7178C15.0678 15.9844 15.998 15.9998 15.998 15.9998C15.998 15.9998 16.0058 14.9806 15.9976 14.6303V1.25323C16.0005 1.08576 15.998 0.00193407 15.998 0.00193407C15.998 0.00193407 14.8852 -0.00332578 14.7178 0.00350271ZM4.99928 13.3406H2.66963V6.21216H4.99928V13.3406ZM3.88945 5.13237C3.72688 5.13804 3.5649 5.11003 3.41368 5.0501C3.26245 4.99017 3.12525 4.89962 3.01071 4.78414C2.89616 4.66865 2.80672 4.53073 2.74803 4.37904C2.68933 4.22734 2.66264 4.06515 2.66963 3.90264C2.66244 3.73838 2.68967 3.57444 2.74957 3.42132C2.80947 3.26819 2.90072 3.12928 3.01745 3.0135C3.13419 2.8977 3.27384 2.80759 3.42745 2.74895C3.58106 2.69029 3.74524 2.6644 3.90944 2.67291C4.07201 2.66726 4.234 2.69526 4.38521 2.75519C4.53644 2.81511 4.67364 2.90566 4.78818 3.02115C4.90273 3.13663 4.99217 3.27455 5.05086 3.42625C5.10956 3.57794 5.13625 3.74014 5.12926 3.90264C5.13645 4.06691 5.10922 4.23085 5.04932 4.38397C4.98942 4.53709 4.89817 4.676 4.78144 4.79179C4.6647 4.90758 4.52505 4.99769 4.37144 5.05634C4.21783 5.115 4.05365 5.14089 3.88945 5.13237ZM13.338 13.3406H10.9984V9.44145C10.9984 8.51165 10.6684 7.8718 9.83854 7.8718C9.58078 7.874 9.32992 7.95588 9.12055 8.10625C8.91108 8.25661 8.75331 8.46806 8.66872 8.71161C8.60373 8.89417 8.57653 9.08803 8.58873 9.28148V13.3406H6.28908V6.21216H8.58873V7.21194C8.7932 6.83633 9.09746 6.52459 9.468 6.31104C9.83854 6.09759 10.2609 5.99069 10.6884 6.00218C12.1982 6.00218 13.338 7.00199 13.338 9.13152V13.3406Z" fill="black"/>
</svg>
