<svg width="32" height="32" viewBox="0 0 32 32" fill="none" xmlns="http://www.w3.org/2000/svg">
<path d="M16.0029 15.6667C16.6454 15.6667 17.1944 15.4379 17.6499 14.9804C18.1055 14.5229 18.3333 13.9729 18.3333 13.3304C18.3333 12.6879 18.1045 12.1389 17.647 11.6834C17.1894 11.2278 16.6394 11 15.997 11C15.3545 11 14.8055 11.2288 14.3499 11.6863C13.8944 12.1438 13.6666 12.6938 13.6666 13.3363C13.6666 13.9788 13.8954 14.5278 14.3529 14.9834C14.8104 15.4389 15.3604 15.6667 16.0029 15.6667ZM15.9999 26.7C18.9555 24.0111 21.1388 21.5722 22.5499 19.3834C23.961 17.1945 24.6666 15.2667 24.6666 13.6C24.6666 10.9825 23.83 8.83919 22.1569 7.17019C20.4837 5.50119 18.4314 4.66669 15.9999 4.66669C13.5684 4.66669 11.5161 5.50119 9.84299 7.17019C8.16983 8.83919 7.33325 10.9825 7.33325 13.6C7.33325 15.2667 8.05547 17.1945 9.49992 19.3834C10.9444 21.5722 13.111 24.0111 15.9999 26.7ZM15.9999 29.3334C12.4221 26.2889 9.74992 23.4611 7.98325 20.85C6.21659 18.2389 5.33325 15.8222 5.33325 13.6C5.33325 10.2667 6.40547 7.61113 8.54992 5.63335C10.6944 3.65558 13.1777 2.66669 15.9999 2.66669C18.8221 2.66669 21.3055 3.65558 23.4499 5.63335C25.5944 7.61113 26.6666 10.2667 26.6666 13.6C26.6666 15.8222 25.7833 18.2389 24.0166 20.85C22.2499 23.4611 19.5777 26.2889 15.9999 29.3334Z" fill="black" fill-opacity="0.4"/>
</svg>
