<svg width="97" height="39" viewBox="0 0 97 39" fill="none" xmlns="http://www.w3.org/2000/svg">
<path d="M50.0792 13.9251L54.6941 13.627C54.7994 14.381 54.9924 14.9422 55.3083 15.3455C55.8171 15.9768 56.519 16.2924 57.449 16.2924C58.1333 16.2924 58.6773 16.1346 59.0458 15.8014C59.3967 15.5384 59.6073 15.1175 59.6073 14.6791C59.6073 14.2583 59.4143 13.855 59.0809 13.592C58.7299 13.2763 57.9052 12.9607 56.6067 12.6801C54.4835 12.2067 52.957 11.5754 52.062 10.7688C51.1672 10.0148 50.6583 8.91003 50.6934 7.73516C50.6934 6.92854 50.939 6.12192 51.3953 5.45557C51.9217 4.70155 52.6411 4.10535 53.5009 3.77218C54.4309 3.36887 55.7294 3.15845 57.3613 3.15845C59.3616 3.15845 60.8882 3.52669 61.941 4.28071C62.9939 5.01719 63.6255 6.20959 63.8186 7.84038L59.2563 8.10341C59.1335 7.40199 58.8878 6.89347 58.4843 6.5603C58.0807 6.22713 57.5543 6.06931 56.8699 6.06931C56.3084 6.06931 55.8873 6.19206 55.6065 6.42002C55.3433 6.63044 55.1679 6.94608 55.1854 7.29678C55.1854 7.55981 55.3258 7.80531 55.5364 7.96312C55.7645 8.17355 56.3084 8.36644 57.1682 8.54179C59.2914 8.99771 60.8005 9.45363 61.7305 9.92708C62.6605 10.4005 63.3272 10.9792 63.7308 11.6631C64.152 12.3645 64.3625 13.1711 64.345 13.9953C64.345 14.9772 64.0642 15.9592 63.5027 16.7834C62.9237 17.6426 62.1165 18.309 61.169 18.7123C60.1688 19.1507 58.9054 19.3786 57.3963 19.3786C54.7292 19.3786 52.8868 18.8701 51.8515 17.8355C50.8162 16.8009 50.2021 15.5033 50.0792 13.9251ZM1.10546 19.1156V3.43901H9.19465C10.6861 3.43901 11.8442 3.56176 12.6339 3.82479C13.4059 4.07028 14.0903 4.57881 14.5465 5.26268C15.0554 6.0167 15.301 6.89347 15.2835 7.80531C15.3361 9.34841 14.5465 10.8214 13.1954 11.5929C12.669 11.891 12.0899 12.1015 11.4933 12.2067C11.932 12.3294 12.3707 12.5398 12.7567 12.7853C13.055 13.0308 13.3007 13.3114 13.5288 13.6095C13.792 13.9076 14.0201 14.2408 14.2131 14.5915L16.5644 19.1331H11.0546L8.45767 14.3109C8.12428 13.6972 7.84352 13.2939 7.58032 13.101C7.22938 12.8555 6.80825 12.7327 6.38712 12.7327H5.96599V19.098H1.10546V19.1156ZM5.96599 9.7868H8.01899C8.45767 9.75173 8.8788 9.68158 9.29993 9.57637C9.61577 9.52377 9.89653 9.34841 10.0895 9.08538C10.5633 8.45411 10.4931 7.55981 9.91407 7.01622C9.59823 6.75319 8.98408 6.6129 8.10673 6.6129H5.96599V9.7868ZM0 32.5476L4.61487 32.2495C4.72015 33.0036 4.91317 33.5647 5.22902 33.968C5.72033 34.5993 6.43976 34.9324 7.36975 34.9324C8.05409 34.9324 8.59805 34.7746 8.96653 34.4414C9.31747 34.1609 9.52804 33.7576 9.52804 33.3192C9.52804 32.8983 9.33502 32.495 9.00163 32.232C8.65069 31.9164 7.82598 31.6007 6.50995 31.3202C4.38676 30.8467 2.86017 30.2154 1.96527 29.4088C1.07037 28.6548 0.561505 27.5501 0.596599 26.3752C0.596599 25.5686 0.842258 24.762 1.29848 24.0956C1.82489 23.3416 2.54432 22.7454 3.40412 22.4122C4.33412 22.0089 5.6326 21.7985 7.26447 21.7985C9.26483 21.7985 10.7914 22.1667 11.8442 22.9207C12.8971 23.6748 13.5112 24.8496 13.7042 26.4804L9.142 26.7434C9.01918 26.042 8.77352 25.5335 8.36994 25.2003C7.9839 24.8672 7.43994 24.7093 6.75561 24.7269C6.1941 24.7269 5.77297 24.8496 5.49222 25.0951C5.21147 25.3055 5.05355 25.6212 5.07109 25.9719C5.07109 26.2349 5.21147 26.4804 5.42203 26.6382C5.65014 26.8487 6.1941 27.0415 7.05391 27.2169C9.1771 27.6728 10.6861 28.1287 11.6161 28.6022C12.5461 29.0756 13.2129 29.6543 13.6165 30.3382C14.0376 31.0396 14.2482 31.8462 14.2482 32.6528C14.2482 33.6348 13.9499 34.5993 13.4059 35.4234C12.8269 36.2827 12.0197 36.949 11.0722 37.3523C10.072 37.7907 8.80861 38.0187 7.29957 38.0187C4.63242 38.0187 2.78998 37.5101 1.7547 36.4755C0.719428 35.4234 0.140376 34.1258 0 32.5476Z" fill="#848484"/>
<path d="M23.3374 31.3203L27.5838 32.6003C27.3557 33.67 26.8819 34.687 26.2327 35.5813C25.6361 36.3704 24.8465 36.9842 23.9516 37.3875C23.0391 37.7908 21.881 38.0012 20.4772 38.0012C18.7752 38.0012 17.3714 37.7557 16.301 37.2647C15.2131 36.7737 14.2831 35.897 13.4935 34.652C12.7039 33.407 12.3179 31.8112 12.3179 29.8648C12.3179 27.2696 13.0022 25.2706 14.3884 23.8853C15.7746 22.5 17.7224 21.7986 20.2491 21.7986C22.2319 21.7986 23.7761 22.2019 24.9166 22.991C26.0397 23.7976 26.8819 25.0251 27.4434 26.6734L23.1619 27.6203C23.0567 27.2521 22.8987 26.8838 22.6882 26.5682C22.425 26.1999 22.0916 25.9194 21.688 25.709C21.2844 25.4985 20.8282 25.4109 20.372 25.4109C19.2665 25.4109 18.4242 25.8492 17.8452 26.7435C17.4065 27.3923 17.1784 28.4269 17.1784 29.8298C17.1784 31.5658 17.4416 32.7582 17.968 33.407C18.4944 34.0558 19.2314 34.3714 20.1965 34.3714C21.1265 34.3714 21.8284 34.1084 22.3021 33.5998C22.7759 33.0563 23.1268 32.3022 23.3374 31.3203ZM33.2515 22.0616H38.0945V27.5502H43.3937V22.0616H48.2717V37.7382H43.3937V31.3904H38.0945V37.7382H33.2515V22.0616Z" fill="#848484"/>
<path d="M47.6051 29.8999C47.6051 27.3397 48.3245 25.3407 49.7458 23.9203C51.1672 22.5 53.1675 21.781 55.7118 21.781C58.3263 21.781 60.3267 22.4824 61.748 23.8852C63.1693 25.2881 63.8712 27.252 63.8712 29.7771C63.8712 31.6183 63.5554 33.1088 62.9412 34.2837C62.3446 35.441 61.4146 36.3879 60.2741 37.0192C59.0984 37.668 57.642 38.0012 55.9049 38.0012C54.1326 38.0012 52.6762 37.7206 51.5181 37.1595C50.3249 36.5633 49.3423 35.6339 48.693 34.4941C47.9736 33.2666 47.6051 31.7411 47.6051 29.8999ZM52.4481 29.9174C52.4481 31.4956 52.7464 32.6354 53.3254 33.3368C53.9045 34.0207 54.7117 34.3714 55.7294 34.3714C56.7647 34.3714 57.5718 34.0382 58.1509 33.3543C58.7299 32.6704 59.0107 31.4605 59.0107 29.707C59.0107 28.234 58.7124 27.1468 58.1158 26.4805C57.5192 25.7966 56.712 25.4634 55.6943 25.4634C54.7994 25.4284 53.9396 25.8141 53.343 26.498C52.7464 27.1819 52.4481 28.3217 52.4481 29.9174ZM68.837 29.8999C68.837 27.3397 69.5564 25.3407 70.9778 23.9203C72.3991 22.5 74.3994 21.781 76.9437 21.781C79.5583 21.781 81.5762 22.4824 82.9799 23.8852C84.3837 25.2881 85.1031 27.252 85.1031 29.7771C85.1031 31.6183 84.7873 33.1088 84.1731 34.2837C83.5765 35.441 82.6465 36.3879 81.506 37.0192C80.3303 37.668 78.8739 38.0012 77.1368 38.0012C75.3645 38.0012 73.9081 37.7206 72.75 37.1595C71.5568 36.5633 70.5742 35.6339 69.9249 34.4941C69.2055 33.2666 68.837 31.7411 68.837 29.8999ZM73.68 29.9174C73.68 31.4956 73.9783 32.6354 74.5573 33.3368C75.1364 34.0207 75.9436 34.3714 76.9613 34.3714C77.9966 34.3714 78.8037 34.0382 79.3828 33.3543C79.9618 32.6704 80.2426 31.4605 80.2426 29.707C80.2426 28.234 79.9443 27.1468 79.3477 26.4805C78.7511 25.7966 77.9439 25.4634 76.9262 25.4634C76.0313 25.4284 75.1539 25.8141 74.5749 26.498C73.9783 27.1819 73.68 28.3217 73.68 29.9174Z" fill="#848484"/>
<path d="M84.5942 22.0615H89.4372V33.8803H97V37.7381H84.5767V22.0615H84.5942Z" fill="#848484"/>
<mask id="mask0_51_108" style="mask-type:luminance" maskUnits="userSpaceOnUse" x="63" y="4" width="22" height="20">
<path d="M79.2562 21.1569C84.132 17.485 85.6356 11.2605 82.6144 7.25416C79.5933 3.2478 73.1915 2.97667 68.3157 6.64857C63.4398 10.3205 61.9363 16.5449 64.9574 20.5513C67.9786 24.5576 74.3803 24.8288 79.2562 21.1569Z" fill="white"/>
</mask>
<g mask="url(#mask0_51_108)">
<mask id="mask1_51_108" style="mask-type:luminance" maskUnits="userSpaceOnUse" x="52" y="-8" width="44" height="44">
<path d="M52.5226 11.9158L77.7189 -7.05899L95.1539 16.0618L69.9577 35.0366L52.5226 11.9158Z" fill="white"/>
</mask>
<g mask="url(#mask1_51_108)">
<mask id="mask2_51_108" style="mask-type:luminance" maskUnits="userSpaceOnUse" x="63" y="4" width="22" height="20">
<path d="M79.2562 21.1569C84.132 17.485 85.6356 11.2605 82.6144 7.25416C79.5933 3.2478 73.1915 2.97667 68.3157 6.64857C63.4398 10.3205 61.9363 16.5449 64.9574 20.5513C67.9786 24.5576 74.3803 24.8288 79.2562 21.1569Z" fill="white"/>
</mask>
<g mask="url(#mask2_51_108)">
<mask id="mask3_51_108" style="mask-type:luminance" maskUnits="userSpaceOnUse" x="59" y="0" width="30" height="28">
<path d="M59.5388 13.4595L77.182 0.173224L88.1328 14.6957L70.4896 27.982L59.5388 13.4595Z" fill="white"/>
</mask>
<g mask="url(#mask3_51_108)">
<path d="M79.256 21.1569C84.1319 17.485 85.6354 11.2605 82.6143 7.25416C79.5932 3.2478 73.1914 2.97667 68.3156 6.64857C63.4397 10.3205 61.9362 16.5449 64.9573 20.5513C67.9784 24.5576 74.3802 24.8288 79.256 21.1569Z" stroke="#848484" stroke-width="2" stroke-miterlimit="10"/>
</g>
<mask id="mask4_51_108" style="mask-type:luminance" maskUnits="userSpaceOnUse" x="62" y="0" width="24" height="28">
<path d="M62.0531 22.1797L68.1408 0.959355L85.6338 5.97298L79.546 27.1933L62.0531 22.1797Z" fill="white"/>
</mask>
<g mask="url(#mask4_51_108)">
<path d="M59.5389 13.4583L77.1809 0.173281L88.133 14.697L70.491 27.982L59.5389 13.4583Z" stroke="#848484" stroke-width="2" stroke-miterlimit="10"/>
</g>
<path d="M79.2562 21.1569C84.132 17.485 85.6356 11.2605 82.6144 7.25416C79.5933 3.2478 73.1915 2.97667 68.3157 6.64857C63.4398 10.3205 61.9363 16.5449 64.9574 20.5513C67.9786 24.5576 74.3803 24.8288 79.2562 21.1569Z" stroke="#848484" stroke-width="2" stroke-miterlimit="10"/>
<mask id="mask5_51_108" style="mask-type:luminance" maskUnits="userSpaceOnUse" x="59" y="0" width="30" height="28">
<path d="M59.5388 13.4595L77.182 0.173224L88.1328 14.6957L70.4896 27.982L59.5388 13.4595Z" fill="white"/>
</mask>
<g mask="url(#mask5_51_108)">
<path d="M79.256 21.1569C84.1319 17.485 85.6354 11.2605 82.6143 7.25416C79.5932 3.2478 73.1914 2.97667 68.3156 6.64857C63.4397 10.3205 61.9362 16.5449 64.9573 20.5513C67.9784 24.5576 74.3802 24.8288 79.256 21.1569Z" stroke="#848484" stroke-width="2" stroke-miterlimit="10"/>
</g>
<mask id="mask6_51_108" style="mask-type:luminance" maskUnits="userSpaceOnUse" x="62" y="0" width="24" height="28">
<path d="M62.0531 22.1797L68.1408 0.959355L85.6338 5.97298L79.546 27.1933L62.0531 22.1797Z" fill="white"/>
</mask>
<g mask="url(#mask6_51_108)">
<path d="M59.5389 13.4583L77.1809 0.173281L88.133 14.697L70.491 27.982L59.5389 13.4583Z" stroke="#848484" stroke-width="2" stroke-miterlimit="10"/>
</g>
<path d="M52.5226 11.9158L77.7189 -7.05899L95.1539 16.0618L69.9577 35.0366L52.5226 11.9158Z" stroke="#848484" stroke-width="2" stroke-miterlimit="10"/>
</g>
<path d="M79.2562 21.1569C84.132 17.485 85.6356 11.2605 82.6144 7.25416C79.5933 3.2478 73.1915 2.97667 68.3157 6.64857C63.4398 10.3205 61.9363 16.5449 64.9574 20.5513C67.9786 24.5576 74.3803 24.8288 79.2562 21.1569Z" stroke="#848484" stroke-width="2" stroke-miterlimit="10"/>
<path d="M68.8545 12.7502L70.6093 11.5227L72.7675 14.5914C73.136 15.0824 73.4168 15.6084 73.6273 16.1871C73.7502 16.6255 73.7151 17.0989 73.5396 17.5198C73.3115 18.0458 72.943 18.4842 72.4517 18.7999C71.8726 19.2032 71.3813 19.4311 70.9602 19.5013C70.5566 19.5714 70.1355 19.5013 69.7494 19.3259C69.3283 19.1155 68.9598 18.8174 68.6791 18.4316L70.1881 17.0288C70.311 17.2217 70.4689 17.397 70.6443 17.5373C70.7672 17.625 70.9076 17.6776 71.0655 17.6776C71.1883 17.6776 71.3111 17.625 71.3989 17.5549C71.5743 17.4496 71.6972 17.2392 71.6796 17.0288C71.627 16.7307 71.5041 16.4326 71.3111 16.2046L68.8545 12.7502ZM74.1187 14.6966L75.7154 13.4341C75.8909 13.6445 76.119 13.8023 76.3647 13.89C76.7156 13.9952 77.0841 13.9251 77.3824 13.6971C77.593 13.5568 77.7684 13.3639 77.8386 13.1184C77.9439 12.8028 77.7684 12.4521 77.4526 12.3469C77.4 12.3293 77.3473 12.3118 77.2947 12.3118C77.0841 12.2943 76.7156 12.3819 76.1717 12.6099C75.2768 12.9781 74.5749 13.1184 74.0485 13.0658C73.5396 13.0132 73.0658 12.7502 72.7851 12.3118C72.5745 12.0137 72.4692 11.663 72.4517 11.3123C72.4517 10.909 72.557 10.5057 72.7851 10.1725C73.1185 9.69904 73.5221 9.29573 74.0134 8.98009C74.7503 8.47157 75.3996 8.22607 75.9611 8.22607C76.5226 8.22607 77.049 8.4891 77.5403 9.0327L75.9611 10.2777C75.6452 9.87439 75.0487 9.78672 74.6451 10.1024L74.5924 10.155C74.417 10.2602 74.2941 10.418 74.2239 10.6109C74.1713 10.7512 74.2064 10.909 74.2941 11.0317C74.3643 11.1194 74.4696 11.1895 74.5924 11.1895C74.7328 11.2071 74.9785 11.1369 75.3294 10.9791C76.2068 10.6109 76.8735 10.4005 77.3298 10.3303C77.7158 10.2602 78.1194 10.2952 78.4879 10.4531C78.8213 10.5933 79.102 10.8388 79.295 11.1369C79.5407 11.4876 79.6811 11.9085 79.6986 12.3469C79.7162 12.8028 79.5933 13.2412 79.3477 13.627C79.0318 14.1004 78.6282 14.5037 78.1545 14.8194C77.1894 15.4857 76.3998 15.7663 75.7681 15.661C75.0837 15.5558 74.5222 15.2051 74.1187 14.6966Z" fill="#848484"/>
</g>
</g>
</svg>
