<svg width="48" height="48" viewBox="0 0 48 48" fill="none" xmlns="http://www.w3.org/2000/svg">
<g clip-path="url(#clip0_15_102)">
<path d="M37.9999 0H10C4.47716 0 6.48541e-06 4.47715 5.66244e-06 10L0 38C0 43.5228 4.47714 48 9.99999 48H37.9999C43.5228 48 47.9999 43.5229 47.9999 38V10C47.9999 4.47715 43.5228 0 37.9999 0Z" fill="#37AEE2"/>
<path d="M18.6562 37.875C17.625 37.875 17.7188 37.5 17.4375 36.5625L14.4375 26.7188L37.4062 13.2188" fill="#C8DAEA"/>
<path d="M18.6562 37.875C19.3125 37.875 19.6875 37.5 20.1562 37.125L24.375 33.0938L19.125 29.9062" fill="#A9C9DD"/>
<path d="M19.125 29.9062L31.7813 39.1875C33.0938 40.0312 34.2188 39.5625 34.5938 37.875L39.75 13.6875C40.2188 11.625 38.9063 10.6875 37.5 11.3437L7.4063 22.9687C5.43755 23.7187 5.43755 24.9375 7.0313 25.4062L14.8125 27.8437L32.625 16.5C33.4688 16.0312 34.2188 16.2187 33.6563 16.875" fill="#F6FBFE"/>
</g>
<defs>
<clipPath id="clip0_15_102">
<rect width="48" height="48" fill="white"/>
</clipPath>
</defs>
</svg>
