<svg width="16" height="16" viewBox="0 0 16 16" fill="none" xmlns="http://www.w3.org/2000/svg">
<rect width="16" height="16" fill="white"/>
<path fill-rule="evenodd" clip-rule="evenodd" d="M0 0V16H16V0H0ZM13.5319 3.5404L11.6521 12.5825C11.6078 12.796 11.3575 12.8928 11.1808 12.7644L8.61468 10.9013C8.4589 10.7882 8.24647 10.7942 8.09734 10.9158L6.67457 12.0756C6.50947 12.2106 6.26064 12.1354 6.19742 11.932L5.2095 8.75485L2.65713 7.80227C2.39786 7.70514 2.39564 7.33911 2.65417 7.23953L13.1291 3.19856C13.3512 3.11269 13.5803 3.30722 13.5319 3.5404Z" fill="black"/>
<path fill-rule="evenodd" clip-rule="evenodd" d="M10.904 5.25494L6.02666 8.26038C5.83972 8.37579 5.75174 8.60167 5.81204 8.81312L6.33937 10.667C6.37688 10.7983 6.56736 10.7849 6.58562 10.6492L6.72267 9.63257C6.74856 9.44117 6.83977 9.26473 6.98129 9.13301L11.0064 5.38952C11.0818 5.31968 10.9916 5.20111 10.904 5.25494Z" fill="black"/>
</svg>
