<svg width="16" height="16" viewBox="0 0 16 16" fill="none" xmlns="http://www.w3.org/2000/svg">
<rect width="16" height="16" fill="white"/>
<path d="M8.00712 3.34656C5.44852 3.34656 3.36694 5.42814 3.36694 7.98673C3.36694 8.87824 3.62032 9.74398 4.09962 10.4904L4.21481 10.6697L3.76349 12.2727L5.42194 11.8458L5.59299 11.9502C6.31812 12.3929 7.15293 12.6269 8.00712 12.6269C10.5657 12.6269 12.6473 10.5453 12.6473 7.98673C12.6473 5.42814 10.5657 3.34656 8.00712 3.34656ZM10.8525 9.41287L10.7946 9.68328C10.7293 9.98837 10.5481 10.2582 10.2853 10.4264C9.95339 10.6387 9.52321 10.7429 8.97643 10.5883C7.27953 10.1085 6.31988 8.98501 5.80498 8.28284C5.29004 7.58067 5.09112 6.8785 5.21983 6.30507C5.30616 5.9205 5.58724 5.62541 5.76302 5.47272C5.84914 5.39794 5.96086 5.35989 6.07472 5.3661L6.43732 5.38587C6.50873 5.38976 6.57171 5.43386 6.59983 5.49962L7.12804 6.73547C7.15627 6.80151 7.14436 6.87783 7.09742 6.93215L6.63764 7.46404C6.60036 7.50715 6.59386 7.56859 6.62013 7.61918C7.22568 8.78563 8.32927 9.24783 8.65873 9.36362C8.71487 9.38335 8.77708 9.3647 8.81345 9.31755L9.29455 8.69389C9.34805 8.62451 9.44239 8.60134 9.52194 8.63803L10.7474 9.20289C10.8273 9.23972 10.8709 9.32693 10.8525 9.41287Z" fill="black"/>
<path d="M0 0V16H16V0H0ZM8.00722 13.5749C7.0471 13.5749 6.10697 13.3291 5.27529 12.8624L2.40472 13.6014L3.18844 10.8178C2.68446 9.96163 2.41911 8.98748 2.41911 7.98675C2.41911 4.90546 4.92592 2.39864 8.00722 2.39864C11.0885 2.39864 13.5953 4.90546 13.5953 7.98675C13.5953 11.068 11.0885 13.5749 8.00722 13.5749Z" fill="black"/>
</svg>
