<svg width="49" height="49" viewBox="0 0 49 49" fill="none" xmlns="http://www.w3.org/2000/svg">
<path d="M47.9982 35.8207C47.9982 36.0835 47.9902 36.6535 47.9744 37.0938C47.9357 38.1711 47.8503 39.5612 47.7212 40.1946C47.5271 41.1465 47.2341 42.0449 46.852 42.7927C46.4 43.6772 45.8235 44.4696 45.1383 45.1535C44.4547 45.836 43.6631 46.4103 42.7798 46.8605C42.0281 47.2435 41.1241 47.5367 40.1668 47.7299C39.5397 47.8566 38.16 47.9403 37.0896 47.9784C36.6488 47.9941 36.0788 48.0021 35.8169 48.0021L12.1813 47.9983C11.9185 47.9983 11.3486 47.9902 10.9083 47.9744C9.83095 47.9358 8.44083 47.8504 7.80741 47.7213C6.85556 47.5271 5.95711 47.2341 5.20936 46.8521C4.32473 46.4001 3.53241 45.8235 2.84855 45.1384C2.16605 44.4547 1.59173 43.6632 1.14159 42.7799C0.758437 42.0282 0.465281 41.1241 0.272016 40.1669C0.145453 39.5398 0.0616875 38.1601 0.0235781 37.0896C0.00792188 36.6489 0 36.0788 0 35.817L0.00375 12.1814C0.00375 11.9185 0.0117656 11.3486 0.0275625 10.9083C0.0662344 9.83095 0.151594 8.44083 0.280734 7.80745C0.474844 6.85561 0.767813 5.95716 1.14989 5.20936C1.60191 4.32478 2.17852 3.53241 2.86359 2.84855C3.54722 2.16609 4.33884 1.59173 5.22211 1.14155C5.97384 0.758484 6.87792 0.465328 7.83516 0.272062C8.4622 0.145453 9.84197 0.0616875 10.9124 0.023625C11.3531 0.00792187 11.9233 0 12.185 0L35.8207 0.00379688C36.0835 0.00379688 36.6534 0.0118125 37.0937 0.0276094C37.534 0.0434062 39.0063 0.0276763 40.1946 0.280781C41.241 0.503654 42.0449 0.767859 42.7927 1.14994C43.6772 1.60195 44.4696 2.17856 45.1534 2.86364C45.8359 3.54727 46.4102 4.33884 46.8604 5.22216C47.2435 5.97389 47.5367 6.87792 47.73 7.83516C47.8565 8.46225 47.9402 9.84197 47.9784 10.9125C47.9941 11.3532 48.002 11.9233 48.002 12.1851L47.9982 35.8207Z" fill="url(#paint0_linear_15_98)"/>
<path d="M36.7182 11.3563C33.4684 8.10383 29.1465 6.3117 24.5418 6.30988C15.0542 6.30988 7.33245 14.0287 7.32865 23.5164C7.32744 26.5491 8.12004 29.5095 9.62633 32.119L7.18433 41.0359L16.3092 38.6431C18.8234 40.0139 21.654 40.7364 24.535 40.7376H24.542C34.0287 40.7376 41.7512 33.0178 41.755 23.5301C41.7568 18.9322 39.9681 14.6089 36.7182 11.3563ZM24.542 37.8314H24.5362C21.969 37.8304 19.451 37.141 17.2544 35.8378L16.732 35.5279L11.3171 36.9479L12.7625 31.6701L12.4222 31.129C10.9901 28.8519 10.2337 26.2198 10.2348 23.5175C10.2379 15.6318 16.656 9.21613 24.5476 9.21613C28.3689 9.21758 31.961 10.7073 34.6622 13.4106C37.3634 16.1139 38.8501 19.7074 38.8487 23.529C38.8456 31.4154 32.4276 37.8314 24.542 37.8314ZM32.3896 27.1197C31.9595 26.9045 29.845 25.8643 29.4507 25.7209C29.0565 25.5773 28.7698 25.5056 28.483 25.9361C28.1963 26.3665 27.3721 27.335 27.1211 27.6219C26.8702 27.9089 26.6194 27.9448 26.1893 27.7295C25.7592 27.5143 24.3733 27.0603 22.7306 25.5955C21.452 24.4556 20.5888 23.0474 20.3379 22.6169C20.087 22.1865 20.3112 21.9538 20.5265 21.7394C20.72 21.5468 20.9566 21.2373 21.1717 20.9862C21.3867 20.7352 21.4584 20.5557 21.6018 20.2688C21.7452 19.9819 21.6734 19.7308 21.5659 19.5155C21.4584 19.3003 20.5982 17.184 20.2398 16.3232C19.8907 15.4848 19.5361 15.5982 19.2721 15.585C19.0215 15.5726 18.7345 15.5699 18.4478 15.5699C18.1611 15.5699 17.6951 15.6775 17.3009 16.108C16.9067 16.5384 15.7956 17.5786 15.7956 19.6949C15.7956 21.8112 17.3367 23.8557 17.5518 24.1426C17.7668 24.4296 20.5845 28.7725 24.899 30.6349C25.9252 31.0779 26.7263 31.3424 27.3509 31.5406C28.3812 31.8678 29.3188 31.8216 30.06 31.711C30.8863 31.5875 32.6045 30.6709 32.963 29.6665C33.3215 28.6621 33.3214 27.8013 33.2139 27.622C33.1064 27.4426 32.8197 27.335 32.3896 27.1197Z" fill="white"/>
<defs>
<linearGradient id="paint0_linear_15_98" x1="24.001" y1="0" x2="24.001" y2="48.0021" gradientUnits="userSpaceOnUse">
<stop stop-color="#61FD7D"/>
<stop offset="1" stop-color="#2BB826"/>
</linearGradient>
</defs>
</svg>
